euripides-working.ufo
<glyph name="exclam" format="2">
  <advance width="274"/>
  <unicode hex="0021"/>
  <guideline x="128" y="239" angle="90" identifier="exwaOZLzgE"/>
  <guideline x="174" y="695" angle="0" identifier="URnCwjzEb4"/>
  <outline>
    <contour>
      <point x="67" y="705" type="line"/>
      <point x="104" y="218" type="line"/>
      <point x="170" y="218" type="line"/>
      <point x="207" y="705" type="line"/>
      <point x="207" y="760" type="line"/>
      <point x="137" y="798" type="line"/>
      <point x="67" y="760" type="line"/>
    </contour>
    <contour>
      <point x="137" y="119" type="line"/>
      <point x="50" y="74" type="line"/>
      <point x="50" y="17" type="line"/>
      <point x="137" y="-32" type="line"/>
      <point x="224" y="17" type="line"/>
      <point x="224" y="74" type="line"/>
    </contour>
  </outline>
</glyph>
<glyph name="numbersign" format="2">
  <advance width="720"/>
  <unicode hex="0023"/>
  <guideline x="1118" y="608" angle="90" identifier="4MFK5IOZq5"/>
  <outline>
    <contour>
      <point x="376" y="695" type="line"/>
      <point x="169" y="1" type="line"/>
      <point x="80" y="1" type="line"/>
      <point x="287" y="695" type="line"/>
    </contour>
    <contour>
      <point x="644" y="695" type="line"/>
      <point x="437" y="1" type="line"/>
      <point x="351" y="1" type="line"/>
      <point x="558" y="695" type="line"/>
    </contour>
    <contour>
      <point x="678" y="419" type="line"/>
      <point x="42" y="419" type="line"/>
      <point x="42" y="520" type="line"/>
      <point x="678" y="520" type="line"/>
    </contour>
    <contour>
      <point x="677" y="141" type="line"/>
      <point x="42" y="141" type="line"/>
      <point x="42" y="242" type="line"/>
      <point x="677" y="242" type="line"/>
    </contour>
  </outline>
</glyph>
<glyph name="percent" format="2">
  <advance width="512"/>
  <unicode hex="0025"/>
  <outline>
    <contour>
      <point x="448" y="755.0" type="line"/>
      <point x="141" y="1.0" type="line"/>
      <point x="44" y="1.0" type="line"/>
      <point x="351" y="755.0" type="line"/>
    </contour>
    <contour>
      <point x="33" y="593.0" type="line"/>
      <point x="79" y="685" type="line"/>
    </contour>
    <contour>
      <point x="79" y="501" type="line"/>
      <point x="140" y="501" type="line"/>
      <point x="188.0" y="593.0" type="line"/>
      <point x="140" y="685" type="line"/>
      <point x="79" y="685" type="line"/>
      <point x="33" y="592" type="line"/>
    </contour>
    <contour>
      <point x="328" y="200.0" type="line"/>
      <point x="374" y="292" type="line"/>
    </contour>
    <contour>
      <point x="374" y="108" type="line"/>
      <point x="435" y="108" type="line"/>
      <point x="483.0" y="200.0" type="line"/>
      <point x="435" y="292" type="line"/>
      <point x="374" y="292" type="line"/>
      <point x="328" y="199" type="line"/>
    </contour>
  </outline>
</glyph>
<glyph name="quotesingle" format="2">
  <advance width="153"/>
  <unicode hex="0027"/>
  <outline>
    <contour>
      <point x="75" y="719" type="line"/>
      <point x="28" y="741" type="line"/>
    </contour>
    <contour>
      <point x="124" y="741" type="line"/>
      <point x="124" y="773" type="line"/>
      <point x="75" y="800" type="line"/>
      <point x="28" y="773" type="line"/>
      <point x="28" y="741" type="line"/>
      <point x="76" y="719" type="line"/>
    </contour>
    <contour>
      <point x="28" y="741" type="line"/>
      <point x="48" y="601" type="line"/>
      <point x="104" y="601" type="line"/>
      <point x="124" y="741" type="line"/>
    </contour>
  </outline>
</glyph>
<glyph name="parenleft" format="2">
  <advance width="376"/>
  <unicode hex="0028"/>
  <guideline x="57" y="384" angle="0" identifier="PQFQAkt5DP"/>
  <outline>
    <contour>
      <point x="70" y="434" type="move"/>
    </contour>
    <contour>
      <point x="306" y="-97" type="line"/>
      <point x="210" y="-64"/>
      <point x="132" y="21"/>
      <point x="132" y="154" type="curve"/>
      <point x="132" y="434" type="line"/>
      <point x="133" y="568"/>
      <point x="211" y="642"/>
      <point x="306" y="671" type="curve"/>
      <point x="306" y="804" type="line"/>
      <point x="171" y="773"/>
      <point x="70" y="667"/>
      <point x="70" y="434" type="curve"/>
      <point x="70" y="154" type="line"/>
      <point x="70" y="-80"/>
      <point x="171" y="-195"/>
      <point x="306" y="-231" type="curve"/>
    </contour>
  </outline>
</glyph>
<glyph name="parenright" format="2">
  <advance width="376"/>
  <unicode hex="0029"/>
  <guideline x="52" y="541" angle="90" identifier="d8rNcOXLYj"/>
  <outline>
    <contour>
      <point x="306" y="434" type="move"/>
    </contour>
    <contour>
      <point x="70" y="-97" type="curve"/>
      <point x="70" y="-231" type="line"/>
      <point x="205" y="-195"/>
      <point x="306" y="-80"/>
      <point x="306" y="154" type="curve"/>
      <point x="306" y="434" type="line"/>
      <point x="306" y="667"/>
      <point x="205" y="773"/>
      <point x="70" y="804" type="curve"/>
      <point x="70" y="671" type="line"/>
      <point x="165" y="642"/>
      <point x="243" y="568"/>
      <point x="244" y="434" type="curve"/>
      <point x="244" y="154" type="line"/>
      <point x="244" y="21"/>
      <point x="166" y="-64"/>
    </contour>
  </outline>
</glyph>
<glyph name="asterisk" format="2">
  <advance width="410"/>
  <unicode hex="002A"/>
  <guideline x="212" y="283" angle="0" identifier="5Vl3msH4Gb"/>
  <guideline x="249" y="334" angle="0" identifier="igzW2t8GOl"/>
  <guideline x="219" y="114" angle="0" identifier="hKHoBNdHmu"/>
  <guideline x="166" y="172" angle="0" identifier="0uRyfxt8TS"/>
  <outline>
    <contour>
      <point x="106" y="658" type="line"/>
      <point x="115" y="735" type="line"/>
    </contour>
    <contour>
      <point x="201" y="499" type="line"/>
      <point x="191" y="423" type="line"/>
      <point x="248" y="370" type="line"/>
      <point x="291" y="385" type="line"/>
      <point x="302" y="462" type="line"/>
      <point x="244" y="515" type="line"/>
    </contour>
    <contour>
      <point x="191" y="423" type="line"/>
      <point x="201" y="500" type="line"/>
    </contour>
    <contour>
      <point x="262" y="531" type="line"/>
      <point x="318" y="479" type="line"/>
      <point x="395" y="494" type="line"/>
      <point x="407" y="538" type="line"/>
      <point x="350" y="591" type="line"/>
      <point x="273" y="576" type="line"/>
    </contour>
    <contour>
      <point x="318" y="479" type="line"/>
      <point x="261" y="531" type="line"/>
    </contour>
    <contour>
      <point x="178" y="501" type="line"/>
      <point x="140" y="527" type="line"/>
      <point x="72" y="490" type="line"/>
      <point x="62" y="413" type="line"/>
      <point x="97" y="386" type="line"/>
      <point x="168" y="425" type="line"/>
    </contour>
    <contour>
      <point x="162" y="605" type="line"/>
      <point x="206" y="621" type="line"/>
      <point x="216" y="698" type="line"/>
      <point x="158" y="751" type="line"/>
      <point x="115" y="735" type="line"/>
      <point x="106" y="657" type="line"/>
    </contour>
    <contour>
      <point x="106" y="657" type="line"/>
      <point x="163" y="604" type="line"/>
    </contour>
    <contour>
      <point x="230" y="621" type="line"/>
      <point x="267" y="593" type="line"/>
      <point x="335" y="631" type="line"/>
      <point x="345" y="708" type="line"/>
      <point x="308" y="734" type="line"/>
      <point x="239" y="696" type="line"/>
    </contour>
    <contour>
      <point x="239" y="696" type="line"/>
      <point x="228" y="620" type="line"/>
    </contour>
    <contour>
      <point x="147" y="590" type="line"/>
      <point x="89" y="642" type="line"/>
      <point x="10" y="626" type="line"/>
      <point x="0" y="583" type="line"/>
      <point x="58" y="530" type="line"/>
      <point x="133" y="545" type="line"/>
    </contour>
    <contour>
      <point x="146" y="590" type="line"/>
    </contour>
    <contour>
      <point x="133" y="545" type="move"/>
      <point x="140" y="527" type="line"/>
      <point x="178" y="501" type="line"/>
      <point x="201" y="499" type="line"/>
      <point x="244" y="515" type="line"/>
      <point x="262" y="531" type="line"/>
      <point x="273" y="576" type="line"/>
      <point x="267" y="593" type="line"/>
      <point x="230" y="621" type="line"/>
      <point x="206" y="621" type="line"/>
      <point x="162" y="605" type="line"/>
      <point x="147" y="590" type="line"/>
    </contour>
  </outline>
</glyph>
<glyph name="plus" format="2">
  <advance width="346"/>
  <unicode hex="002B"/>
  <outline>
    <contour>
      <point x="221" y="482" type="line"/>
      <point x="221" y="196" type="line"/>
      <point x="125" y="196" type="line"/>
      <point x="125" y="482" type="line"/>
    </contour>
    <contour>
      <point x="316" y="292" type="line"/>
      <point x="30" y="292" type="line"/>
      <point x="30" y="389" type="line"/>
      <point x="316" y="389" type="line"/>
    </contour>
  </outline>
</glyph>
<glyph name="comma" format="2">
  <advance width="224"/>
  <unicode hex="002C"/>
  <outline>
    <contour>
      <point x="60" y="22" type="line"/>
      <point x="92" y="-40" type="line"/>
      <point x="136" y="-40" type="line"/>
      <point x="174" y="22" type="line"/>
      <point x="136" y="86" type="line"/>
      <point x="92" y="86" type="line"/>
    </contour>
    <contour>
      <point x="136" y="-40" type="line"/>
      <point x="83" y="65" type="line"/>
      <point x="-25" y="-139" type="line"/>
      <point x="12" y="-158" type="line"/>
    </contour>
  </outline>
</glyph>
<glyph name="hyphen" format="2">
  <advance width="330"/>
  <unicode hex="002D"/>
  <outline>
    <contour>
      <point x="308.0" y="292" type="line"/>
      <point x="22" y="292" type="line"/>
      <point x="22" y="388" type="line"/>
      <point x="308.0" y="388" type="line"/>
    </contour>
  </outline>
</glyph>
<glyph name="period" format="2">
  <advance width="215"/>
  <unicode hex="002E"/>
  <outline>
    <contour>
      <point x="194" y="86" type="line"/>
      <point x="108" y="131" type="line"/>
      <point x="20" y="86" type="line"/>
      <point x="20" y="29" type="line"/>
      <point x="107" y="-16" type="line"/>
      <point x="194" y="29" type="line"/>
    </contour>
    <contour>
      <point x="108" y="131" type="line"/>
      <point x="195" y="86" type="line"/>
    </contour>
  </outline>
</glyph>
<glyph name="zero" format="2">
  <advance width="655"/>
  <unicode hex="0030"/>
  <guideline x="638" y="575" angle="0" identifier="Z5LLl4ojMO"/>
  <guideline x="49" y="417" angle="90" identifier="PHhicv5sBX"/>
  <outline>
    <contour>
      <point x="536" y="370" type="curve"/>
      <point x="535" y="151"/>
      <point x="397" y="112"/>
      <point x="325" y="112" type="curve" smooth="yes"/>
      <point x="250" y="112"/>
      <point x="116" y="158"/>
      <point x="116" y="360" type="curve"/>
      <point x="116" y="582"/>
      <point x="251" y="618"/>
      <point x="326" y="618" type="curve" smooth="yes"/>
      <point x="400" y="618"/>
      <point x="534" y="581"/>
    </contour>
    <contour>
      <point x="599" y="372" type="curve"/>
      <point x="599" y="685"/>
      <point x="446" y="746"/>
      <point x="326" y="746" type="curve" smooth="yes"/>
      <point x="206" y="746"/>
      <point x="56" y="685"/>
      <point x="56" y="372" type="curve"/>
      <point x="56" y="59"/>
      <point x="207" y="-16"/>
      <point x="327" y="-16" type="curve" smooth="yes"/>
      <point x="446" y="-16"/>
      <point x="599" y="59"/>
    </contour>
  </outline>
</glyph>
<glyph name="one" format="2">
  <advance width="434"/>
  <unicode hex="0031"/>
  <outline>
    <contour>
      <point x="264" y="662" type="move"/>
      <point x="178" y="735" type="line"/>
      <point x="80" y="689" type="line"/>
      <point x="80" y="631" type="line"/>
      <point x="178" y="582" type="line"/>
    </contour>
    <contour>
      <point x="177" y="735" type="move"/>
      <point x="177" y="136" type="line"/>
      <point x="140" y="108" type="line"/>
      <point x="59" y="108" type="line"/>
      <point x="59" y="1" type="line"/>
      <point x="375" y="1" type="line"/>
      <point x="375" y="108" type="line"/>
      <point x="303" y="108" type="line"/>
      <point x="264" y="136" type="line"/>
      <point x="264" y="662" type="line"/>
    </contour>
  </outline>
</glyph>
<glyph name="two" format="2">
  <advance width="579"/>
  <unicode hex="0032"/>
  <outline>
    <contour>
      <point x="523" y="73" type="line"/>
      <point x="523" y="207" type="line"/>
      <point x="482" y="207" type="line"/>
      <point x="393" y="73" type="line"/>
    </contour>
    <contour>
      <point x="523" y="2" type="line"/>
      <point x="523" y="104" type="line"/>
      <point x="52" y="104" type="line"/>
      <point x="52" y="2" type="line"/>
    </contour>
    <contour>
      <point x="480" y="542" type="curve"/>
      <point x="480" y="693"/>
      <point x="420" y="753"/>
      <point x="271" y="753" type="curve"/>
      <point x="134" y="753"/>
      <point x="48" y="676"/>
      <point x="48" y="554" type="curve" smooth="yes"/>
      <point x="48" y="540"/>
      <point x="49" y="530"/>
      <point x="49" y="526" type="curve"/>
      <point x="110" y="494" type="line"/>
      <point x="110" y="496"/>
      <point x="109" y="503"/>
      <point x="109" y="512" type="curve" smooth="yes"/>
      <point x="109" y="582"/>
      <point x="170" y="629"/>
      <point x="267" y="634" type="curve"/>
      <point x="333" y="634"/>
      <point x="380" y="589"/>
      <point x="380" y="525" type="curve"/>
      <point x="380" y="339"/>
      <point x="53" y="121"/>
      <point x="53" y="104" type="curve"/>
      <point x="99" y="35" type="line"/>
      <point x="102" y="52"/>
      <point x="480" y="368"/>
    </contour>
  </outline>
</glyph>
<glyph name="three" format="2">
  <advance width="622"/>
  <unicode hex="0033"/>
  <guideline x="525" y="353" angle="90" identifier="di8H0ibDgy"/>
  <outline>
    <contour>
      <point x="101" y="667" type="line"/>
      <point x="101" y="533" type="line"/>
      <point x="144" y="533" type="line"/>
      <point x="233" y="667" type="line"/>
    </contour>
    <contour>
      <point x="101" y="738" type="line"/>
      <point x="101" y="639" type="line"/>
      <point x="545" y="639" type="line"/>
      <point x="545" y="738" type="line"/>
    </contour>
    <contour>
      <point x="444" y="639" type="move"/>
      <point x="212" y="433" type="line"/>
      <point x="285" y="386" type="line"/>
      <point x="545" y="639" type="line"/>
      <point x="433" y="738" type="line"/>
    </contour>
    <contour>
      <point x="106" y="288" type="line"/>
      <point x="50" y="241" type="line"/>
    </contour>
    <contour>
      <point x="317" y="116" type="line"/>
      <point x="199" y="116"/>
      <point x="141" y="169"/>
      <point x="106" y="288" type="curve"/>
      <point x="50" y="241" type="line"/>
      <point x="89" y="62"/>
      <point x="151" y="-12"/>
      <point x="300" y="-12" type="curve"/>
      <point x="339" y="-12" type="line"/>
      <point x="434" y="-12"/>
      <point x="572" y="41"/>
      <point x="572" y="210" type="curve"/>
      <point x="572" y="321"/>
      <point x="523" y="433"/>
      <point x="212" y="433" type="curve"/>
      <point x="212" y="355" type="line"/>
      <point x="465" y="355"/>
      <point x="498" y="274"/>
      <point x="498" y="220" type="curve"/>
      <point x="498" y="136"/>
      <point x="374" y="116"/>
      <point x="320" y="116" type="curve"/>
    </contour>
  </outline>
</glyph>
<glyph name="four" format="2">
  <advance width="579"/>
  <unicode hex="0034"/>
  <guideline x="551" y="178" angle="90" identifier="j3DHWA5fe2"/>
  <outline>
    <contour>
      <point x="141" y="318" type="move"/>
      <point x="333" y="691" type="line"/>
      <point x="256" y="737" type="line"/>
      <point x="40" y="318" type="line"/>
    </contour>
    <contour>
      <point x="377" y="626" type="line"/>
      <point x="377" y="737" type="line"/>
      <point x="256" y="737" type="line"/>
      <point x="256" y="626" type="line"/>
    </contour>
    <contour>
      <point x="377" y="737" type="line"/>
      <point x="377" y="136" type="line"/>
      <point x="339" y="106" type="line"/>
      <point x="275" y="106" type="line"/>
      <point x="275" y="3" type="line"/>
      <point x="544" y="2" type="line"/>
      <point x="544" y="105" type="line"/>
      <point x="502" y="106" type="line"/>
      <point x="461" y="136" type="line"/>
      <point x="461" y="737" type="line"/>
    </contour>
    <contour>
      <point x="543" y="328" type="line"/>
      <point x="40" y="328" type="line"/>
      <point x="40" y="250" type="line"/>
      <point x="543" y="250" type="line"/>
    </contour>
  </outline>
</glyph>
<glyph name="five" format="2">
  <advance width="633"/>
  <unicode hex="0035"/>
  <outline>
    <contour>
      <point x="545" y="666" type="line"/>
      <point x="413" y="666" type="line"/>
      <point x="502" y="532" type="line"/>
      <point x="545" y="532" type="line"/>
    </contour>
    <contour>
      <point x="511" y="273" type="line"/>
      <point x="510" y="129"/>
      <point x="404" y="110"/>
      <point x="350" y="110" type="curve"/>
      <point x="299" y="110" type="line"/>
      <point x="191" y="110"/>
      <point x="144" y="162"/>
      <point x="110" y="281" type="curve"/>
      <point x="56" y="240" type="line"/>
      <point x="95" y="61"/>
      <point x="157" y="-13"/>
      <point x="306" y="-13" type="curve"/>
      <point x="347" y="-13" type="line"/>
      <point x="480" y="-13"/>
      <point x="576" y="90"/>
      <point x="577" y="267" type="curve"/>
      <point x="577" y="401"/>
      <point x="527" y="482"/>
      <point x="288" y="482" type="curve"/>
      <point x="184" y="482" type="line"/>
      <point x="184" y="639" type="line"/>
      <point x="545" y="639" type="line"/>
      <point x="545" y="737" type="line"/>
      <point x="99" y="737" type="line"/>
      <point x="99" y="482" type="line"/>
      <point x="99" y="380" type="line"/>
      <point x="210" y="381" type="line"/>
      <point x="453" y="383"/>
      <point x="511" y="354"/>
      <point x="511" y="282" type="curve"/>
    </contour>
  </outline>
</glyph>
<glyph name="six" format="2">
  <advance width="644"/>
  <unicode hex="0036"/>
  <guideline x="357" y="234" angle="0" identifier="O0CGbLM8YX"/>
  <outline>
    <contour>
      <point x="423" y="-16"/>
      <point x="588" y="-3"/>
      <point x="588" y="226" type="curve" smooth="yes"/>
      <point x="588" y="412"/>
      <point x="465" y="465"/>
      <point x="345" y="465" type="curve" smooth="yes"/>
      <point x="242" y="465"/>
      <point x="151" y="422"/>
      <point x="121" y="298" type="curve"/>
      <point x="140" y="597"/>
      <point x="230" y="618"/>
      <point x="365" y="618" type="curve" smooth="yes"/>
      <point x="414" y="618"/>
      <point x="466" y="609"/>
      <point x="507" y="587" type="curve"/>
      <point x="587" y="667" type="line"/>
      <point x="525.0" y="723"/>
      <point x="444" y="746"/>
      <point x="366" y="746" type="curve" smooth="yes"/>
      <point x="186" y="746"/>
      <point x="66" y="655"/>
      <point x="66" y="372" type="curve"/>
      <point x="66" y="267"/>
      <point x="81" y="187"/>
      <point x="112" y="126" type="curve" smooth="yes"/>
      <point x="164" y="24"/>
      <point x="244" y="-16"/>
      <point x="357" y="-16" type="curve" smooth="yes"/>
    </contour>
    <contour>
      <point x="536" y="245" type="curve"/>
      <point x="536" y="136"/>
      <point x="439" y="102"/>
      <point x="345" y="102" type="curve" smooth="yes"/>
      <point x="251" y="102"/>
      <point x="167" y="136"/>
      <point x="167" y="226" type="curve"/>
      <point x="167" y="314"/>
      <point x="250" y="374"/>
      <point x="345" y="374" type="curve"/>
      <point x="440" y="374"/>
      <point x="536" y="339"/>
    </contour>
    <contour>
      <point x="134" y="427" type="move"/>
      <point x="164" y="389" type="line"/>
    </contour>
  </outline>
</glyph>
<glyph name="seven" format="2">
  <advance width="564"/>
  <unicode hex="0037"/>
  <outline>
    <contour>
      <point x="59" y="663" type="line"/>
      <point x="59" y="529" type="line"/>
      <point x="102" y="529" type="line"/>
      <point x="191" y="663" type="line"/>
    </contour>
    <contour>
      <point x="420" y="636" type="line"/>
      <point x="409" y="734" type="line"/>
      <point x="188" y="1" type="line"/>
      <point x="289" y="-1" type="line"/>
      <point x="505" y="734" type="line"/>
      <point x="59" y="734" type="line"/>
      <point x="59" y="636" type="line"/>
    </contour>
    <contour>
      <point x="226" y="117" type="move"/>
      <point x="186" y="87" type="line"/>
      <point x="134" y="87" type="line"/>
      <point x="134" y="0" type="line"/>
      <point x="393" y="0" type="line"/>
      <point x="393" y="87" type="line"/>
      <point x="349" y="87" type="line"/>
      <point x="310" y="117" type="line"/>
    </contour>
  </outline>
</glyph>
<glyph name="eight" format="2">
  <advance width="602"/>
  <unicode hex="0038"/>
  <guideline x="334" y="541" angle="90" identifier="vgHIswft6k"/>
  <guideline x="669" y="35" angle="0" identifier="MJ8mWAbace"/>
  <guideline x="630" y="468" angle="0" identifier="C9Zh2yWFgi"/>
  <guideline x="382" y="556" angle="0" identifier="DXtCVeJS4W"/>
  <guideline x="426" y="310" angle="0" identifier="9e1dTEIRn1"/>
  <guideline x="269" y="221" angle="0" identifier="pv4tIkzBMU"/>
  <outline>
    <contour>
      <point x="482" y="220" type="curve"/>
      <point x="482" y="121"/>
      <point x="386" y="98"/>
      <point x="294" y="98" type="curve" smooth="yes"/>
      <point x="202" y="98"/>
      <point x="121" y="121"/>
      <point x="121" y="221" type="curve"/>
      <point x="121" y="305"/>
      <point x="202" y="334"/>
      <point x="295" y="334" type="curve"/>
      <point x="387" y="334"/>
      <point x="482" y="306"/>
    </contour>
    <contour>
      <point x="297" y="751" type="curve"/>
      <point x="213" y="752"/>
      <point x="74" y="725"/>
      <point x="74" y="541" type="curve" smooth="yes"/>
      <point x="74" y="386"/>
      <point x="182" y="339"/>
      <point x="297" y="339" type="curve" smooth="yes"/>
      <point x="404" y="339"/>
      <point x="524" y="387"/>
      <point x="524" y="542" type="curve"/>
      <point x="524" y="725"/>
      <point x="381" y="751"/>
    </contour>
    <contour>
      <point x="136" y="534" type="curve"/>
      <point x="136" y="617"/>
      <point x="210" y="646"/>
      <point x="299" y="646" type="curve" smooth="yes"/>
      <point x="387" y="646"/>
      <point x="465" y="615"/>
      <point x="464" y="536" type="curve"/>
      <point x="464" y="454"/>
      <point x="394" y="416"/>
      <point x="295" y="416" type="curve"/>
      <point x="205" y="416"/>
      <point x="136" y="456"/>
    </contour>
    <contour>
      <point x="297" y="-19" type="curve"/>
      <point x="440" y="-20"/>
      <point x="547" y="39"/>
      <point x="547" y="203" type="curve" smooth="yes"/>
      <point x="547" y="389"/>
      <point x="404" y="416"/>
      <point x="296" y="416" type="curve" smooth="yes"/>
      <point x="195" y="416"/>
      <point x="55" y="380"/>
      <point x="55" y="195" type="curve"/>
      <point x="55" y="41"/>
      <point x="159" y="-19"/>
    </contour>
  </outline>
</glyph>
<glyph name="nine" format="2">
  <advance width="624"/>
  <unicode hex="0039"/>
  <outline>
    <contour>
      <point x="211" y="746"/>
      <point x="46" y="733"/>
      <point x="46" y="504" type="curve" smooth="yes"/>
      <point x="46" y="318"/>
      <point x="169" y="265"/>
      <point x="289" y="265" type="curve" smooth="yes"/>
      <point x="392" y="265"/>
      <point x="483" y="310"/>
      <point x="513" y="434" type="curve"/>
      <point x="513" y="135"/>
      <point x="413" y="113"/>
      <point x="278" y="113" type="curve" smooth="yes"/>
      <point x="229" y="113"/>
      <point x="178" y="121"/>
      <point x="137" y="143" type="curve"/>
      <point x="57" y="63" type="line"/>
      <point x="119" y="7"/>
      <point x="200" y="-16"/>
      <point x="278" y="-16" type="curve" smooth="yes"/>
      <point x="458" y="-16"/>
      <point x="578" y="75"/>
      <point x="578" y="358" type="curve"/>
      <point x="578" y="641"/>
      <point x="457" y="746"/>
      <point x="277" y="746" type="curve" smooth="yes"/>
    </contour>
    <contour>
      <point x="98" y="485" type="curve"/>
      <point x="98" y="594"/>
      <point x="195" y="628"/>
      <point x="289" y="628" type="curve" smooth="yes"/>
      <point x="383" y="628"/>
      <point x="467" y="594"/>
      <point x="467" y="504" type="curve"/>
      <point x="467" y="416"/>
      <point x="384" y="356"/>
      <point x="289" y="356" type="curve"/>
      <point x="194" y="356"/>
      <point x="98" y="391"/>
    </contour>
  </outline>
</glyph>
<glyph name="colon" format="2">
  <advance width="219"/>
  <unicode hex="003A"/>
  <outline>
    <contour>
      <point x="50" y="431" type="line"/>
      <point x="91" y="514" type="line"/>
    </contour>
    <contour>
      <point x="91" y="348" type="line"/>
      <point x="146" y="348" type="line"/>
      <point x="189" y="431" type="line"/>
      <point x="146" y="514" type="line"/>
      <point x="91" y="514" type="line"/>
      <point x="50" y="430" type="line"/>
    </contour>
    <contour>
      <point x="50" y="69" type="line"/>
      <point x="91" y="152" type="line"/>
    </contour>
    <contour>
      <point x="91" y="-14" type="line"/>
      <point x="146" y="-14" type="line"/>
      <point x="189" y="69" type="line"/>
      <point x="146" y="152" type="line"/>
      <point x="91" y="152" type="line"/>
      <point x="50" y="68" type="line"/>
    </contour>
  </outline>
</glyph>
<glyph name="semicolon" format="2">
  <advance width="234"/>
  <unicode hex="003B"/>
  <guideline x="216" y="182" angle="90" identifier="ISnO8KbNGu"/>
  <guideline x="154" y="197" angle="90" identifier="BmCUpjKiRz"/>
  <outline>
    <contour>
      <point x="60" y="22" type="line"/>
      <point x="92" y="-40" type="line"/>
      <point x="146" y="-40" type="line"/>
      <point x="184" y="22" type="line"/>
      <point x="146" y="86" type="line"/>
      <point x="92" y="86" type="line"/>
    </contour>
    <contour>
      <point x="146" y="-40" type="line"/>
      <point x="83" y="65" type="line"/>
      <point x="-25" y="-139" type="line"/>
      <point x="12" y="-158" type="line"/>
    </contour>
    <contour>
      <point x="49.0" y="416.0" type="line"/>
      <point x="90.0" y="499.0" type="line"/>
    </contour>
    <contour>
      <point x="90.0" y="333.0" type="line"/>
      <point x="145.0" y="333.0" type="line"/>
      <point x="188.0" y="416.0" type="line"/>
      <point x="145.0" y="499.0" type="line"/>
      <point x="90.0" y="499.0" type="line"/>
      <point x="49.0" y="415.0" type="line"/>
    </contour>
  </outline>
</glyph>
<glyph name="equal" format="2">
  <advance width="429"/>
  <unicode hex="003D"/>
  <outline>
    <contour>
      <point x="399" y="352" type="line"/>
      <point x="30" y="352" type="line"/>
      <point x="30" y="448" type="line"/>
      <point x="399" y="448" type="line"/>
    </contour>
    <contour>
      <point x="399" y="222" type="line"/>
      <point x="30" y="222" type="line"/>
      <point x="30" y="318" type="line"/>
      <point x="399" y="318" type="line"/>
    </contour>
  </outline>
</glyph>
<glyph name="A" format="2">
  <advance width="762"/>
  <unicode hex="0041"/>
  <outline>
    <contour>
      <point x="259" y="423" type="line"/>
      <point x="501" y="423" type="line"/>
      <point x="432" y="625" type="line"/>
      <point x="327" y="625" type="line"/>
    </contour>
    <contour>
      <point x="269" y="-1" type="line"/>
      <point x="35" y="-1" type="line"/>
      <point x="35" y="84" type="line"/>
      <point x="60" y="84" type="line"/>
      <point x="87" y="117" type="line"/>
      <point x="255" y="645" type="line"/>
      <point x="288" y="753" type="line"/>
      <point x="475" y="753" type="line"/>
      <point x="506" y="647" type="line"/>
      <point x="675" y="119" type="line"/>
      <point x="702" y="86" type="line"/>
      <point x="727" y="86" type="line"/>
      <point x="727" y="1" type="line"/>
      <point x="493" y="1" type="line"/>
      <point x="493" y="86" type="line"/>
      <point x="557" y="86" type="line"/>
      <point x="587" y="122" type="line"/>
      <point x="522" y="336" type="line"/>
      <point x="240" y="336" type="line"/>
      <point x="175" y="120" type="line"/>
      <point x="205" y="84" type="line"/>
      <point x="269" y="84" type="line"/>
    </contour>
    <contour>
      <point x="341.0" y="628.0" type="line"/>
      <point x="258.0" y="690.0" type="line"/>
      <point x="512.0" y="690.0" type="line"/>
      <point x="427.0" y="628.0" type="line"/>
    </contour>
    <contour>
      <point x="531.0" y="753.0" type="line"/>
      <point x="531.0" y="668.0" type="line"/>
      <point x="233.0" y="668.0" type="line"/>
      <point x="233.0" y="753.0" type="line"/>
    </contour>
  </outline>
</glyph>
<glyph name="B" format="2">
  <advance width="691"/>
  <unicode hex="0042"/>
  <outline>
    <contour>
      <point x="345" y="750" type="line"/>
      <point x="370" y="632" type="line"/>
      <point x="234" y="632" type="line"/>
      <point x="234" y="112" type="line"/>
      <point x="412" y="113"/>
      <point x="587" y="89"/>
      <point x="587" y="222" type="curve" smooth="yes"/>
      <point x="587" y="339"/>
      <point x="463" y="332"/>
      <point x="211" y="334" type="curve"/>
      <point x="192" y="419" type="line"/>
      <point x="373" y="399"/>
      <point x="661" y="429"/>
      <point x="661" y="216" type="curve" smooth="yes"/>
      <point x="661" y="43"/>
      <point x="544" y="5"/>
      <point x="416" y="0" type="curve" smooth="yes"/>
      <point x="66" y="0" type="line"/>
      <point x="66" y="72" type="line"/>
      <point x="105" y="72" type="line"/>
      <point x="142" y="110" type="line"/>
      <point x="142" y="646" type="line"/>
      <point x="109" y="671" type="line"/>
      <point x="65" y="671" type="line"/>
      <point x="65" y="750" type="line"/>
      <point x="299" y="750" type="line"/>
    </contour>
    <contour>
      <point x="345" y="750" type="line"/>
      <point x="473" y="745"/>
      <point x="590" y="706"/>
      <point x="590" y="533" type="curve" smooth="yes"/>
      <point x="590" y="320"/>
      <point x="325" y="349"/>
      <point x="144" y="329" type="curve"/>
      <point x="160" y="413" type="line"/>
      <point x="425" y="414"/>
      <point x="513" y="403"/>
      <point x="513" y="526" type="curve" smooth="yes"/>
      <point x="513" y="653"/>
      <point x="341" y="632"/>
      <point x="163" y="633" type="curve"/>
    </contour>
  </outline>
</glyph>
<glyph name="C" format="2">
  <advance width="739"/>
  <unicode hex="0043"/>
  <guideline x="689" y="423" angle="90" identifier="TPW7AjPds7"/>
  <outline>
    <contour>
      <point x="687" y="262" type="line"/>
      <point x="668" y="63"/>
      <point x="519" y="-14"/>
      <point x="382" y="-14" type="curve" smooth="yes"/>
      <point x="200" y="-14"/>
      <point x="45" y="93"/>
      <point x="45" y="382" type="curve" smooth="yes"/>
      <point x="45" y="608"/>
      <point x="200" y="762"/>
      <point x="383" y="762" type="curve" smooth="yes"/>
      <point x="502" y="762"/>
      <point x="630" y="677"/>
      <point x="687" y="542" type="curve"/>
      <point x="619" y="517" type="line"/>
      <point x="498" y="721"/>
      <point x="107" y="675"/>
      <point x="107" y="380" type="curve" smooth="yes"/>
      <point x="107" y="64"/>
      <point x="551" y="43"/>
      <point x="611" y="282" type="curve"/>
    </contour>
    <contour>
      <point x="619" y="517" type="line"/>
      <point x="694" y="544" type="line"/>
    </contour>
    <contour>
      <point x="690" y="261" type="move"/>
      <point x="607" y="283" type="line"/>
    </contour>
  </outline>
</glyph>
<glyph name="D" format="2">
  <advance width="763"/>
  <unicode hex="0044"/>
  <outline>
    <contour>
      <point x="718" y="376" type="curve" smooth="yes"/>
      <point x="718" y="599"/>
      <point x="557" y="751"/>
      <point x="410" y="751" type="curve" smooth="yes"/>
      <point x="65" y="751" type="line"/>
      <point x="65" y="671" type="line"/>
      <point x="109" y="671" type="line"/>
      <point x="142" y="646" type="line"/>
      <point x="142" y="110" type="line"/>
      <point x="105" y="72" type="line"/>
      <point x="66" y="72" type="line"/>
      <point x="66" y="0" type="line"/>
      <point x="416" y="0" type="line" smooth="yes"/>
      <point x="562" y="5"/>
      <point x="718" y="133"/>
    </contour>
    <contour>
      <point x="409" y="632" type="line" smooth="yes"/>
      <point x="532" y="631"/>
      <point x="654" y="531"/>
      <point x="654" y="379" type="curve" smooth="yes"/>
      <point x="654" y="223"/>
      <point x="538" y="113"/>
      <point x="415" y="112" type="curve" smooth="yes"/>
      <point x="233" y="112" type="line"/>
      <point x="233" y="632" type="line"/>
    </contour>
  </outline>
</glyph>
<glyph name="E" format="2">
  <advance width="676"/>
  <unicode hex="0045"/>
  <outline>
    <contour>
      <point x="434" y="357" type="line"/>
      <point x="228" y="357" type="line"/>
      <point x="228" y="429" type="line"/>
      <point x="436" y="429" type="line"/>
    </contour>
    <contour>
      <point x="616" y="73" type="line"/>
      <point x="482" y="73" type="line"/>
      <point x="573" y="209" type="line"/>
      <point x="616" y="209" type="line"/>
    </contour>
    <contour>
      <point x="235" y="103" type="line"/>
      <point x="150" y="103" type="line"/>
      <point x="150" y="657" type="line"/>
      <point x="235" y="657" type="line"/>
    </contour>
    <contour>
      <point x="596" y="750" type="line"/>
      <point x="596" y="666" type="line"/>
      <point x="65" y="666" type="line"/>
      <point x="65" y="750" type="line"/>
    </contour>
    <contour>
      <point x="150" y="637" type="line"/>
      <point x="65" y="699" type="line"/>
      <point x="319" y="699" type="line"/>
      <point x="236" y="637" type="line"/>
    </contour>
    <contour>
      <point x="551" y="576" type="line"/>
      <point x="460" y="667" type="line"/>
      <point x="596" y="667" type="line"/>
      <point x="596" y="576" type="line"/>
    </contour>
    <contour>
      <point x="504" y="307" type="line"/>
      <point x="410" y="307" type="line"/>
      <point x="410" y="481" type="line"/>
      <point x="504" y="481" type="line"/>
    </contour>
    <contour>
      <point x="235" y="93" type="line"/>
      <point x="150" y="93" type="line"/>
    </contour>
    <contour>
      <point x="616" y="0" type="line"/>
      <point x="65" y="0" type="line"/>
      <point x="65" y="84" type="line"/>
      <point x="616" y="84" type="line"/>
    </contour>
    <contour>
      <point x="150" y="113" type="line"/>
      <point x="236" y="113" type="line"/>
      <point x="319" y="51" type="line"/>
      <point x="65" y="51" type="line"/>
    </contour>
    <contour>
      <point x="504" y="283" type="line"/>
      <point x="410" y="283" type="line"/>
      <point x="410" y="505" type="line"/>
      <point x="504" y="505" type="line"/>
    </contour>
  </outline>
</glyph>
<glyph name="F" format="2">
  <advance width="616"/>
  <unicode hex="0046"/>
  <outline>
    <contour>
      <point x="434" y="357" type="line"/>
      <point x="217" y="357" type="line"/>
      <point x="228" y="429" type="line"/>
      <point x="436" y="429" type="line"/>
    </contour>
    <contour>
      <point x="236" y="125" type="line"/>
      <point x="319" y="62" type="line"/>
      <point x="65" y="63" type="line"/>
      <point x="150" y="125" type="line"/>
    </contour>
    <contour>
      <point x="235" y="103" type="line"/>
      <point x="150" y="103" type="line"/>
      <point x="150" y="657" type="line"/>
      <point x="235" y="657" type="line"/>
    </contour>
    <contour>
      <point x="596" y="750" type="line"/>
      <point x="596" y="670" type="line"/>
      <point x="65" y="666" type="line"/>
      <point x="65" y="750" type="line"/>
    </contour>
    <contour>
      <point x="150" y="637" type="line"/>
      <point x="65" y="699" type="line"/>
      <point x="319" y="699" type="line"/>
      <point x="236" y="637" type="line"/>
    </contour>
    <contour>
      <point x="553" y="580" type="line"/>
      <point x="462" y="670" type="line"/>
      <point x="596" y="670" type="line"/>
      <point x="596" y="580" type="line"/>
    </contour>
    <contour>
      <point x="504" y="283" type="line"/>
      <point x="410" y="283" type="line"/>
      <point x="410" y="505" type="line"/>
      <point x="504" y="505" type="line"/>
    </contour>
    <contour>
      <point x="68" y="0" type="line"/>
      <point x="66" y="85" type="line"/>
      <point x="324" y="79" type="line"/>
      <point x="323" y="0" type="line"/>
    </contour>
  </outline>
</glyph>
<glyph name="G" format="2">
  <advance width="765"/>
  <unicode hex="0047"/>
  <outline>
    <contour>
      <point x="720" y="382" type="line"/>
      <point x="720" y="93"/>
      <point x="565" y="-14"/>
      <point x="383" y="-14" type="curve" smooth="yes"/>
      <point x="221" y="-14"/>
      <point x="45" y="93"/>
      <point x="45" y="382" type="curve" smooth="yes"/>
      <point x="45" y="608"/>
      <point x="221" y="762"/>
      <point x="382" y="762" type="curve" smooth="yes"/>
      <point x="524" y="762"/>
      <point x="660" y="674"/>
      <point x="698" y="523" type="curve"/>
      <point x="632" y="500" type="line"/>
      <point x="523" y="723"/>
      <point x="111" y="683"/>
      <point x="111" y="380" type="curve" smooth="yes"/>
      <point x="111" y="28"/>
      <point x="658" y="28"/>
      <point x="658" y="380" type="curve"/>
    </contour>
    <contour>
      <point x="699" y="299" type="line"/>
      <point x="298" y="289" type="line"/>
      <point x="297" y="388" type="line"/>
      <point x="718" y="388" type="line"/>
    </contour>
    <contour>
      <point x="632" y="499" type="line"/>
      <point x="707" y="526" type="line"/>
    </contour>
  </outline>
</glyph>
<glyph name="H" format="2">
  <advance width="855"/>
  <unicode hex="0048"/>
  <outline>
    <contour>
      <point x="652" y="389" type="line"/>
      <point x="207" y="389" type="line"/>
      <point x="207" y="488" type="line"/>
      <point x="652" y="488" type="line"/>
    </contour>
    <contour>
      <point x="536" y="0" type="line"/>
      <point x="536" y="85" type="line"/>
      <point x="790" y="83" type="line"/>
      <point x="790" y="0" type="line"/>
    </contour>
    <contour>
      <point x="705" y="115" type="line"/>
      <point x="790" y="53" type="line"/>
      <point x="535" y="53" type="line"/>
      <point x="618" y="115" type="line"/>
    </contour>
    <contour>
      <point x="55" y="0" type="line"/>
      <point x="55" y="85" type="line"/>
      <point x="319" y="85" type="line"/>
      <point x="319" y="0" type="line"/>
    </contour>
    <contour>
      <point x="236" y="115" type="line"/>
      <point x="319" y="52" type="line"/>
      <point x="66" y="52" type="line"/>
      <point x="150" y="115" type="line"/>
    </contour>
    <contour>
      <point x="236" y="93" type="line"/>
      <point x="150" y="93" type="line"/>
      <point x="150" y="657" type="line"/>
      <point x="236" y="657" type="line"/>
    </contour>
    <contour>
      <point x="319" y="750" type="line"/>
      <point x="319" y="667" type="line"/>
      <point x="55" y="667" type="line"/>
      <point x="55" y="750" type="line"/>
    </contour>
    <contour>
      <point x="150" y="637" type="line"/>
      <point x="65" y="699" type="line"/>
      <point x="319" y="699" type="line"/>
      <point x="236" y="637" type="line"/>
    </contour>
    <contour>
      <point x="704" y="92" type="line"/>
      <point x="618" y="92" type="line"/>
      <point x="618" y="655" type="line"/>
      <point x="704" y="655" type="line"/>
    </contour>
    <contour>
      <point x="800" y="750" type="line"/>
      <point x="800" y="666" type="line"/>
      <point x="536" y="666" type="line"/>
      <point x="536" y="750" type="line"/>
    </contour>
    <contour>
      <point x="619" y="635" type="line"/>
      <point x="536" y="698" type="line"/>
      <point x="790" y="698" type="line"/>
      <point x="705" y="635" type="line"/>
    </contour>
  </outline>
</glyph>
<glyph name="J" format="2">
  <advance width="574"/>
  <unicode hex="004A"/>
  <outline>
    <contour>
      <point x="363" y="658" type="line"/>
      <point x="449" y="658" type="line"/>
    </contour>
    <contour>
      <point x="280" y="751" type="line"/>
      <point x="534" y="751" type="line"/>
      <point x="534" y="670" type="line"/>
      <point x="280" y="670" type="line"/>
    </contour>
    <contour>
      <point x="449" y="640" type="line"/>
      <point x="363" y="640" type="line"/>
      <point x="280" y="702" type="line"/>
      <point x="534" y="702" type="line"/>
    </contour>
    <contour>
      <point x="360" y="306" type="line"/>
      <point x="360" y="673" type="line"/>
      <point x="449" y="677" type="line"/>
      <point x="449" y="306" type="line"/>
    </contour>
    <contour>
      <point x="30" y="28" type="line"/>
      <point x="81" y="138" type="line"/>
    </contour>
    <contour>
      <point x="30" y="28" type="line"/>
      <point x="68" y="10"/>
      <point x="116" y="0"/>
      <point x="177" y="0" type="curve" smooth="yes"/>
      <point x="400" y="0"/>
      <point x="449" y="159"/>
      <point x="449" y="306" type="curve"/>
      <point x="360" y="306" type="line"/>
      <point x="359" y="183"/>
      <point x="332" y="127"/>
      <point x="180" y="127" type="curve" smooth="yes"/>
      <point x="140" y="127"/>
      <point x="107" y="131"/>
      <point x="81" y="138" type="curve"/>
    </contour>
  </outline>
</glyph>
<glyph name="K" format="2">
  <advance width="727"/>
  <unicode hex="004B"/>
  <guideline x="299" y="666" angle="0" identifier="95wbhQgpsK"/>
  <guideline x="657" y="561" angle="90" identifier="8PpSCp6NOZ"/>
  <guideline x="620" y="90" angle="0" identifier="RQLEUGto4Z"/>
  <outline>
    <contour>
      <point x="564" y="0" type="line"/>
      <point x="635" y="49" type="line"/>
      <point x="322" y="421" type="line"/>
      <point x="247" y="374" type="line"/>
    </contour>
    <contour>
      <point x="564" y="114" type="line"/>
      <point x="564" y="0" type="line"/>
      <point x="677" y="0" type="line"/>
      <point x="677" y="114" type="line"/>
      <point x="595" y="114" type="line"/>
    </contour>
    <contour>
      <point x="158" y="119" type="line"/>
      <point x="118" y="89" type="line"/>
      <point x="65" y="89" type="line"/>
      <point x="65" y="0" type="line"/>
      <point x="329" y="0" type="line"/>
      <point x="329" y="89" type="line"/>
      <point x="285" y="89" type="line"/>
      <point x="244" y="119" type="line"/>
      <point x="244" y="635" type="line"/>
      <point x="275" y="666" type="line"/>
      <point x="309" y="666" type="line"/>
      <point x="309" y="750" type="line"/>
      <point x="75" y="750" type="line"/>
      <point x="75" y="666" type="line"/>
      <point x="117" y="666" type="line"/>
      <point x="158" y="635" type="line"/>
    </contour>
    <contour>
      <point x="657" y="750" type="line"/>
      <point x="426" y="750" type="line"/>
      <point x="426" y="666" type="line"/>
      <point x="657" y="666" type="line"/>
    </contour>
    <contour>
      <point x="589" y="666" type="line"/>
      <point x="487" y="666" type="line"/>
      <point x="239" y="398" type="line"/>
      <point x="239" y="279" type="line"/>
    </contour>
  </outline>
</glyph>
<glyph name="M" format="2">
  <advance width="952"/>
  <unicode hex="004D"/>
  <outline>
    <contour>
      <point x="121" y="696" type="line"/>
      <point x="121" y="114" type="line"/>
      <point x="81" y="84" type="line"/>
      <point x="56" y="84" type="line"/>
      <point x="56" y="-1" type="line"/>
      <point x="270" y="-1" type="line"/>
      <point x="270" y="84" type="line"/>
      <point x="247" y="84" type="line"/>
      <point x="207" y="114" type="line"/>
      <point x="207" y="646" type="line"/>
    </contour>
    <contour>
      <point x="830" y="635" type="line"/>
      <point x="873" y="665" type="line"/>
      <point x="897" y="665" type="line"/>
      <point x="897" y="750" type="line"/>
      <point x="686" y="750" type="line"/>
      <point x="488" y="160" type="line"/>
      <point x="465" y="160" type="line"/>
      <point x="265" y="750" type="line"/>
      <point x="55" y="750" type="line"/>
      <point x="55" y="664" type="line"/>
      <point x="79" y="664" type="line"/>
      <point x="121" y="634" type="line"/>
      <point x="216" y="634" type="line"/>
      <point x="437" y="6" type="line"/>
      <point x="520" y="6" type="line"/>
      <point x="740" y="633.0" type="line"/>
    </contour>
    <contour>
      <point x="896" y="0" type="line"/>
      <point x="896" y="85" type="line"/>
      <point x="871" y="85" type="line"/>
      <point x="830" y="115" type="line"/>
      <point x="830" y="719" type="line"/>
      <point x="745" y="719" type="line"/>
      <point x="745" y="115" type="line"/>
      <point x="705" y="85" type="line"/>
      <point x="682" y="85" type="line"/>
      <point x="682" y="0" type="line"/>
    </contour>
  </outline>
</glyph>
<glyph name="N" format="2">
  <advance width="835"/>
  <unicode hex="004E"/>
  <outline>
    <contour>
      <point x="633" y="0" type="line"/>
      <point x="191" y="706" type="line"/>
      <point x="263" y="741" type="line"/>
      <point x="705" y="37" type="line"/>
    </contour>
    <contour>
      <point x="633" y="0" type="line"/>
      <point x="633" y="85" type="line"/>
      <point x="707" y="85" type="line"/>
      <point x="707" y="0" type="line"/>
    </contour>
    <contour>
      <point x="59" y="0" type="line"/>
      <point x="59" y="85" type="line"/>
      <point x="313" y="85" type="line"/>
      <point x="313" y="0" type="line"/>
    </contour>
    <contour>
      <point x="230" y="115" type="line"/>
      <point x="313" y="52" type="line"/>
      <point x="59" y="52" type="line"/>
      <point x="144" y="115" type="line"/>
    </contour>
    <contour>
      <point x="230" y="93" type="line"/>
      <point x="144" y="93" type="line"/>
      <point x="144" y="657" type="line"/>
      <point x="230" y="657" type="line"/>
    </contour>
    <contour>
      <point x="707" y="62" type="line"/>
      <point x="621" y="62" type="line"/>
      <point x="621" y="655" type="line"/>
      <point x="707" y="655" type="line"/>
    </contour>
    <contour>
      <point x="536" y="749" type="line"/>
      <point x="790" y="749" type="line"/>
      <point x="790" y="664" type="line"/>
      <point x="536" y="664" type="line"/>
    </contour>
    <contour>
      <point x="707" y="634" type="line"/>
      <point x="621" y="634" type="line"/>
      <point x="536" y="697" type="line"/>
      <point x="790" y="697" type="line"/>
    </contour>
    <contour>
      <point x="58" y="750" type="line"/>
      <point x="258" y="750" type="line"/>
      <point x="305" y="667" type="line"/>
      <point x="58" y="665" type="line"/>
    </contour>
    <contour>
      <point x="252" y="698" type="line"/>
      <point x="229" y="635" type="line"/>
      <point x="143" y="635" type="line"/>
      <point x="58" y="698" type="line"/>
    </contour>
  </outline>
</glyph>
<glyph name="P" format="2">
  <advance width="632"/>
  <unicode hex="0050"/>
  <guideline x="418" y="533" angle="90" identifier="lFeHlJqeIt"/>
  <guideline x="364" y="504" angle="90" identifier="TxWSEQHXLn"/>
  <outline>
    <contour>
      <point x="345" y="750" type="line"/>
      <point x="365" y="632" type="line"/>
      <point x="234" y="632" type="line"/>
      <point x="234" y="112" type="line"/>
      <point x="142" y="110" type="line"/>
      <point x="142" y="646" type="line"/>
      <point x="109" y="671" type="line"/>
      <point x="65" y="671" type="line"/>
      <point x="65" y="750" type="line"/>
      <point x="299" y="750" type="line"/>
    </contour>
    <contour>
      <point x="345" y="750" type="line"/>
      <point x="473" y="745"/>
      <point x="600" y="664"/>
      <point x="600" y="501" type="curve"/>
      <point x="600" y="341"/>
      <point x="486" y="267"/>
      <point x="364" y="265" type="curve" smooth="yes"/>
      <point x="352" y="265"/>
      <point x="339" y="265"/>
      <point x="327" y="265" type="curve" smooth="yes"/>
      <point x="293" y="265"/>
      <point x="258" y="265"/>
      <point x="225" y="265" type="curve" smooth="yes"/>
      <point x="212" y="265"/>
      <point x="200" y="265"/>
      <point x="188" y="265" type="curve" smooth="yes"/>
      <point x="173" y="265"/>
      <point x="158" y="329"/>
      <point x="144" y="329" type="curve"/>
      <point x="160" y="356" type="line"/>
      <point x="364" y="359" type="line"/>
      <point x="476" y="365"/>
      <point x="532" y="390"/>
      <point x="532" y="500" type="curve"/>
      <point x="532" y="601"/>
      <point x="453" y="626"/>
      <point x="365" y="632" type="curve"/>
      <point x="288" y="634" type="line"/>
      <point x="251" y="634"/>
      <point x="213" y="634"/>
      <point x="174" y="634" type="curve" smooth="yes"/>
      <point x="170" y="634"/>
      <point x="166" y="634"/>
      <point x="162" y="634" type="curve"/>
    </contour>
    <contour>
      <point x="62" y="1" type="line"/>
      <point x="62" y="86" type="line"/>
      <point x="316" y="84" type="line"/>
      <point x="316" y="1" type="line"/>
    </contour>
    <contour>
      <point x="231" y="116" type="line"/>
      <point x="316" y="54" type="line"/>
      <point x="61" y="54" type="line"/>
      <point x="144" y="116" type="line"/>
    </contour>
  </outline>
</glyph>
<glyph name="Q" format="2">
  <advance width="796"/>
  <unicode hex="0051"/>
  <outline>
    <contour>
      <point x="653" y="380" type="curve"/>
      <point x="653" y="204"/>
      <point x="515" y="117"/>
      <point x="379" y="117" type="curve" smooth="yes"/>
      <point x="242" y="117"/>
      <point x="107" y="195"/>
      <point x="107" y="371" type="curve"/>
      <point x="107" y="547"/>
      <point x="244" y="634"/>
      <point x="381" y="634" type="curve" smooth="yes"/>
      <point x="517" y="634"/>
      <point x="653" y="556"/>
    </contour>
    <contour>
      <point x="719" y="382" type="move"/>
      <point x="719" y="671"/>
      <point x="543" y="764"/>
      <point x="381" y="764" type="curve" smooth="yes"/>
      <point x="199" y="764"/>
      <point x="45" y="671"/>
      <point x="45" y="382" type="curve"/>
      <point x="45" y="93"/>
      <point x="200" y="-14"/>
      <point x="382" y="-14" type="curve" smooth="yes"/>
      <point x="544" y="-14"/>
      <point x="719" y="93"/>
      <point x="719" y="382" type="curve"/>
    </contour>
    <contour>
      <point x="671" y="-2" type="line"/>
      <point x="802" y="-2" type="line"/>
      <point x="802" y="96" type="line"/>
      <point x="671" y="96" type="line"/>
    </contour>
    <contour>
      <point x="671" y="-2" type="curve"/>
      <point x="739" y="58" type="line"/>
      <point x="612" y="157"/>
      <point x="535" y="336"/>
      <point x="409" y="387" type="curve"/>
      <point x="355" y="417"/>
      <point x="293" y="426"/>
      <point x="232" y="426" type="curve"/>
      <point x="158" y="426"/>
      <point x="120" y="424"/>
      <point x="79" y="409" type="curve"/>
      <point x="79" y="321" type="line"/>
      <point x="117" y="337"/>
      <point x="154" y="340"/>
      <point x="227" y="340" type="curve"/>
      <point x="282" y="340"/>
      <point x="343" y="329"/>
      <point x="382" y="304" type="curve"/>
      <point x="492" y="241"/>
      <point x="556" y="98"/>
    </contour>
  </outline>
</glyph>
<glyph name="R" format="2">
  <advance width="711"/>
  <unicode hex="0052"/>
  <outline>
    <contour>
      <point x="345" y="750" type="line"/>
      <point x="370" y="632" type="line"/>
      <point x="234" y="632" type="line"/>
      <point x="234" y="112" type="line"/>
      <point x="142" y="110" type="line"/>
      <point x="142" y="646" type="line"/>
      <point x="109" y="671" type="line"/>
      <point x="65" y="671" type="line"/>
      <point x="65" y="750" type="line"/>
      <point x="299" y="750" type="line"/>
    </contour>
    <contour>
      <point x="345" y="750" type="line"/>
      <point x="473" y="745"/>
      <point x="590" y="706"/>
      <point x="590" y="533" type="curve" smooth="yes"/>
      <point x="590" y="320"/>
      <point x="325" y="329"/>
      <point x="144" y="329" type="curve"/>
      <point x="160" y="418" type="line"/>
      <point x="342" y="420"/>
      <point x="523" y="406"/>
      <point x="523" y="519" type="curve" smooth="yes"/>
      <point x="523" y="655"/>
      <point x="341" y="632"/>
      <point x="163" y="633" type="curve"/>
    </contour>
    <contour>
      <point x="62" y="0" type="line"/>
      <point x="62" y="86" type="line"/>
      <point x="316" y="84" type="line"/>
      <point x="316" y="0" type="line"/>
    </contour>
    <contour>
      <point x="231" y="116" type="line"/>
      <point x="316" y="54" type="line"/>
      <point x="61" y="54" type="line"/>
      <point x="144" y="116" type="line"/>
    </contour>
    <contour>
      <point x="564" y="0" type="line"/>
      <point x="247" y="374" type="line"/>
      <point x="322" y="421" type="line"/>
      <point x="635" y="49" type="line"/>
    </contour>
    <contour>
      <point x="574" y="120" type="line"/>
      <point x="604" y="84" type="line"/>
      <point x="668" y="84" type="line"/>
      <point x="668" y="0" type="line"/>
      <point x="564" y="0" type="line"/>
      <point x="564" y="84" type="line"/>
      <point x="499" y="84" type="line"/>
      <point x="506" y="118" type="line"/>
    </contour>
  </outline>
</glyph>
<glyph name="S" format="2">
  <advance width="667"/>
  <unicode hex="0053"/>
  <outline>
    <contour>
      <point x="533" y="515" type="line"/>
      <point x="608" y="542" type="line"/>
    </contour>
    <contour>
      <point x="58" y="280" type="line"/>
      <point x="58" y="77"/>
      <point x="148" y="-11"/>
      <point x="349" y="-12" type="curve" smooth="yes"/>
      <point x="500" y="-12"/>
      <point x="612" y="101"/>
      <point x="612" y="207" type="curve" smooth="yes"/>
      <point x="611" y="482"/>
      <point x="138" y="389"/>
      <point x="151" y="550" type="curve" smooth="yes"/>
      <point x="159" y="671"/>
      <point x="481" y="691"/>
      <point x="533" y="516" type="curve"/>
      <point x="608" y="542" type="line"/>
      <point x="599" y="692"/>
      <point x="520" y="762"/>
      <point x="350" y="762" type="curve" smooth="yes"/>
      <point x="189" y="762"/>
      <point x="95" y="682"/>
      <point x="88" y="563" type="curve" smooth="yes"/>
      <point x="78" y="461"/>
      <point x="170" y="394"/>
      <point x="303" y="364" type="curve"/>
      <point x="418" y="325"/>
      <point x="544" y="328"/>
      <point x="542" y="213" type="curve"/>
      <point x="542" y="63"/>
      <point x="126" y="68"/>
      <point x="126" y="301" type="curve"/>
    </contour>
  </outline>
</glyph>
<glyph name="T" format="2">
  <advance width="673"/>
  <unicode hex="0054"/>
  <outline>
    <contour>
      <point x="290" y="125" type="line"/>
      <point x="376" y="125" type="line"/>
      <point x="461" y="63" type="line"/>
      <point x="207" y="62" type="line"/>
    </contour>
    <contour>
      <point x="291" y="103" type="line"/>
      <point x="291" y="657" type="line"/>
      <point x="376" y="657" type="line"/>
      <point x="376" y="103" type="line"/>
    </contour>
    <contour>
      <point x="20" y="750" type="line"/>
      <point x="573" y="750" type="line"/>
      <point x="20" y="646" type="line"/>
    </contour>
    <contour>
      <point x="376" y="637" type="line"/>
      <point x="290" y="637" type="line"/>
      <point x="207" y="699" type="line"/>
      <point x="471" y="699" type="line"/>
    </contour>
    <contour>
      <point x="59" y="544" type="line"/>
      <point x="20" y="544" type="line"/>
      <point x="20" y="666" type="line"/>
      <point x="142" y="666" type="line"/>
    </contour>
    <contour>
      <point x="491" y="0" type="line"/>
      <point x="174" y="0" type="line"/>
      <point x="172" y="79" type="line"/>
      <point x="491" y="85" type="line"/>
    </contour>
    <contour>
      <point x="653" y="750" type="line"/>
      <point x="653" y="666" type="line"/>
      <point x="112" y="666" type="line"/>
      <point x="112" y="750" type="line"/>
    </contour>
    <contour>
      <point x="614" y="542" type="line"/>
      <point x="531" y="666" type="line"/>
      <point x="653" y="666" type="line"/>
      <point x="653" y="542" type="line"/>
    </contour>
  </outline>
</glyph>
<glyph name="V" format="2">
  <advance width="718"/>
  <unicode hex="0056"/>
  <guideline x="183" y="668" angle="0" identifier="tvUn3z1lqf"/>
  <outline>
    <contour>
      <point x="335" y="127" type="line"/>
      <point x="380" y="127" type="line"/>
      <point x="535" y="636" type="line"/>
      <point x="511" y="668" type="line"/>
      <point x="451" y="668" type="line"/>
      <point x="451" y="751" type="line"/>
      <point x="685" y="751" type="line"/>
      <point x="685" y="668" type="line"/>
      <point x="660" y="668" type="line"/>
      <point x="633" y="636" type="line"/>
      <point x="464" y="105" type="line"/>
      <point x="433" y="-1" type="line"/>
      <point x="286" y="-1" type="line"/>
      <point x="253" y="107" type="line"/>
      <point x="85" y="635" type="line"/>
      <point x="58" y="668" type="line"/>
      <point x="33" y="668" type="line"/>
      <point x="33" y="753" type="line"/>
      <point x="267" y="753" type="line"/>
      <point x="267" y="668" type="line"/>
      <point x="210" y="668" type="line"/>
      <point x="183" y="635" type="line"/>
    </contour>
    <contour>
      <point x="210" y="668" type="move"/>
      <point x="183" y="635" type="line"/>
    </contour>
    <contour>
      <point x="660" y="669" type="move"/>
      <point x="633" y="636" type="line"/>
    </contour>
  </outline>
</glyph>
<glyph name="W" format="2">
  <advance width="1168"/>
  <unicode hex="0057"/>
  <guideline x="314" y="634" angle="0" identifier="21FGXArAJh"/>
  <outline>
    <contour>
      <point x="335" y="127" type="line"/>
      <point x="380" y="127" type="line"/>
      <point x="535" y="636" type="line"/>
      <point x="510" y="669" type="line"/>
      <point x="450" y="669" type="line"/>
      <point x="450" y="751" type="line"/>
      <point x="685" y="751" type="line"/>
      <point x="685" y="669" type="line"/>
      <point x="660" y="669" type="line"/>
      <point x="633" y="636" type="line"/>
      <point x="464" y="105" type="line"/>
      <point x="433" y="-1" type="line"/>
      <point x="286" y="-1" type="line"/>
      <point x="253" y="107" type="line"/>
      <point x="85" y="635" type="line"/>
      <point x="58" y="668" type="line"/>
      <point x="33" y="668" type="line"/>
      <point x="33" y="753" type="line"/>
      <point x="267" y="753" type="line"/>
      <point x="267" y="668" type="line"/>
      <point x="210" y="668" type="line"/>
      <point x="183" y="635" type="line"/>
    </contour>
    <contour>
      <point x="210" y="668" type="move"/>
      <point x="183" y="635" type="line"/>
    </contour>
    <contour>
      <point x="633" y="636" type="line"/>
      <point x="660" y="669" type="line"/>
    </contour>
    <contour>
      <point x="785" y="128" type="line"/>
      <point x="830" y="128" type="line"/>
      <point x="985" y="637" type="line"/>
      <point x="961" y="669" type="line"/>
      <point x="901" y="669" type="line"/>
      <point x="901" y="752" type="line"/>
      <point x="1135" y="752" type="line"/>
      <point x="1135" y="669" type="line"/>
      <point x="1110" y="669" type="line"/>
      <point x="1083" y="637" type="line"/>
      <point x="914" y="106" type="line"/>
      <point x="883" y="0" type="line"/>
      <point x="736" y="0" type="line"/>
      <point x="703" y="108" type="line"/>
      <point x="535" y="636" type="line"/>
      <point x="510" y="669" type="line"/>
      <point x="483" y="669" type="line"/>
      <point x="483" y="751" type="line"/>
      <point x="717" y="751" type="line"/>
      <point x="717" y="669" type="line"/>
      <point x="660" y="669" type="line"/>
      <point x="633" y="636" type="line"/>
    </contour>
    <contour>
      <point x="1110" y="670" type="move"/>
      <point x="1083" y="637" type="line"/>
    </contour>
  </outline>
</glyph>
<glyph name="Y" format="2">
  <advance width="752"/>
  <unicode hex="0059"/>
  <outline>
    <contour>
      <point x="185" y="632" type="line"/>
      <point x="215" y="668" type="line"/>
      <point x="279" y="668" type="line"/>
      <point x="279" y="753" type="line"/>
      <point x="35" y="753" type="line"/>
      <point x="35" y="668" type="line"/>
      <point x="70" y="668" type="line"/>
      <point x="97" y="635" type="line"/>
      <point x="328" y="280" type="line"/>
      <point x="415" y="280" type="line"/>
      <point x="645" y="633" type="line"/>
      <point x="672" y="666" type="line"/>
      <point x="717" y="666" type="line"/>
      <point x="717" y="751" type="line"/>
      <point x="463" y="751" type="line"/>
      <point x="463" y="666" type="line"/>
      <point x="527" y="666" type="line"/>
      <point x="557" y="630" type="line"/>
      <point x="402" y="397" type="line"/>
      <point x="337" y="397" type="line"/>
    </contour>
    <contour>
      <point x="224" y="0" type="line"/>
      <point x="518" y="0" type="line"/>
      <point x="518" y="85" type="line"/>
      <point x="224" y="85" type="line"/>
    </contour>
    <contour>
      <point x="415" y="115" type="line"/>
      <point x="329" y="115" type="line"/>
      <point x="244" y="52" type="line"/>
      <point x="498" y="52" type="line"/>
    </contour>
    <contour>
      <point x="415" y="93" type="line"/>
      <point x="415" y="397" type="line"/>
      <point x="329" y="397" type="line"/>
      <point x="329" y="93" type="line"/>
    </contour>
  </outline>
</glyph>
<glyph name="Z" format="2">
  <advance width="781"/>
  <unicode hex="005A"/>
  <outline>
    <contour>
      <point x="671" y="750" type="line"/>
      <point x="671" y="653" type="line"/>
      <point x="162.0" y="653" type="line"/>
      <point x="162.0" y="750" type="line"/>
    </contour>
    <contour>
      <point x="51" y="750" type="line"/>
      <point x="150" y="750" type="line"/>
      <point x="150" y="530" type="line"/>
      <point x="51" y="530" type="line"/>
    </contour>
    <contour>
      <point x="185" y="653" type="line"/>
      <point x="111" y="552" type="line"/>
      <point x="111" y="750" type="line"/>
      <point x="185" y="750" type="line"/>
    </contour>
    <contour>
      <point x="731" y="221" type="line"/>
      <point x="731" y="0" type="line"/>
      <point x="628" y="0" type="line"/>
      <point x="628" y="221" type="line"/>
    </contour>
    <contour>
      <point x="591" y="0" type="line"/>
      <point x="591" y="107" type="line"/>
      <point x="668" y="208" type="line"/>
      <point x="668" y="0" type="line"/>
    </contour>
    <contour>
      <point x="619" y="0" type="line"/>
      <point x="50" y="0" type="line"/>
      <point x="50" y="107" type="line"/>
      <point x="619" y="107" type="line"/>
    </contour>
    <contour>
      <point x="671" y="654" type="line"/>
      <point x="179" y="105" type="line"/>
      <point x="50" y="105" type="line"/>
      <point x="566" y="654" type="line"/>
    </contour>
  </outline>
</glyph>
<glyph name="bracketleft" format="2">
  <advance width="281"/>
  <unicode hex="005B"/>
  <outline>
    <contour>
      <point x="50" y="707" type="line"/>
      <point x="50" y="26" type="line"/>
      <point x="50" y="-99" type="line"/>
      <point x="251" y="-99" type="line"/>
      <point x="251" y="-14" type="line"/>
      <point x="192" y="-14" type="line"/>
      <point x="136" y="26" type="line"/>
      <point x="136" y="707" type="line"/>
      <point x="192" y="747" type="line"/>
      <point x="251" y="747" type="line"/>
      <point x="251" y="832" type="line"/>
      <point x="50" y="832" type="line"/>
    </contour>
  </outline>
</glyph>
<glyph name="backslash" format="2">
  <advance width="484"/>
  <unicode hex="005C"/>
  <outline>
    <contour>
      <point x="40" y="799" type="line"/>
      <point x="137" y="799" type="line"/>
      <point x="444" y="-99" type="line"/>
      <point x="347" y="-99" type="line"/>
    </contour>
  </outline>
</glyph>
<glyph name="a" format="2">
  <advance width="577"/>
  <unicode hex="0061"/>
  <outline>
    <contour>
      <point x="302" y="-4" type="line"/>
      <point x="285" y="-7"/>
      <point x="265" y="-9"/>
      <point x="244" y="-9" type="curve" smooth="yes"/>
      <point x="142" y="-9"/>
      <point x="55" y="28"/>
      <point x="55" y="151" type="curve" smooth="yes"/>
      <point x="55" y="258"/>
      <point x="129" y="284"/>
      <point x="191" y="294" type="curve" smooth="yes"/>
      <point x="211" y="297"/>
      <point x="234" y="300"/>
      <point x="240" y="300" type="curve" smooth="yes"/>
      <point x="392" y="304" type="line"/>
      <point x="410" y="115" type="line"/>
    </contour>
    <contour>
      <point x="537" y="0" type="line"/>
      <point x="412" y="0" type="line"/>
      <point x="412" y="83" type="line"/>
      <point x="537" y="83" type="line"/>
    </contour>
    <contour>
      <point x="461" y="111" type="line"/>
      <point x="464" y="111" type="line"/>
      <point x="537" y="53" type="line"/>
      <point x="461" y="51" type="line"/>
    </contour>
    <contour>
      <point x="126" y="189" type="curve" smooth="yes"/>
      <point x="104" y="76"/>
      <point x="390" y="82"/>
      <point x="390" y="177" type="curve" smooth="yes"/>
      <point x="390" y="240" type="line"/>
      <point x="332" y="240"/>
      <point x="139" y="252"/>
    </contour>
    <contour>
      <point x="390" y="354" type="line" smooth="yes"/>
      <point x="390" y="427"/>
      <point x="254" y="421"/>
      <point x="189" y="385" type="curve"/>
      <point x="93" y="415" type="line"/>
      <point x="171" y="489" type="line"/>
      <point x="304" y="562"/>
      <point x="472" y="491"/>
      <point x="473" y="378" type="curve" smooth="yes"/>
      <point x="473" y="0" type="line"/>
      <point x="390" y="0" type="line"/>
    </contour>
    <contour>
      <point x="343" y="3" type="line"/>
      <point x="421" y="81" type="line"/>
    </contour>
    <contour>
      <point x="301" y="-5" type="line"/>
      <point x="422" y="127" type="line"/>
    </contour>
    <contour>
      <point x="188" y="386" type="move"/>
      <point x="98" y="414" type="line"/>
    </contour>
    <contour>
      <point x="42" y="310" type="move"/>
      <point x="-28" y="361" type="line"/>
    </contour>
  </outline>
</glyph>
<glyph name="b" format="2">
  <advance width="686"/>
  <unicode hex="0062"/>
  <outline>
    <contour>
      <point x="159" y="1" type="line"/>
      <point x="159" y="99" type="line"/>
    </contour>
    <contour>
      <point x="182" y="151" type="line"/>
      <point x="152" y="66" type="line"/>
    </contour>
    <contour>
      <point x="206" y="251" type="curve" smooth="yes"/>
      <point x="206" y="153"/>
      <point x="298" y="104"/>
      <point x="391" y="104" type="curve" smooth="yes"/>
      <point x="483" y="104"/>
      <point x="575" y="153"/>
      <point x="575" y="251" type="curve" smooth="yes"/>
      <point x="575" y="347"/>
      <point x="483" y="394"/>
      <point x="391" y="394" type="curve" smooth="yes"/>
      <point x="298" y="394"/>
      <point x="206" y="347"/>
    </contour>
    <contour>
      <point x="641" y="242" type="curve" smooth="yes"/>
      <point x="641" y="64"/>
      <point x="512" y="-6"/>
      <point x="382" y="-6" type="curve" smooth="yes"/>
      <point x="339" y="-6"/>
      <point x="308" y="0"/>
      <point x="282" y="14" type="curve"/>
      <point x="130" y="158" type="line"/>
      <point x="106" y="213" type="line"/>
      <point x="106" y="223"/>
      <point x="106" y="231"/>
      <point x="106" y="239" type="curve" smooth="yes"/>
      <point x="106" y="325"/>
      <point x="108" y="324"/>
      <point x="167" y="357" type="curve"/>
      <point x="263" y="474" type="line"/>
      <point x="297" y="496"/>
      <point x="355" y="509"/>
      <point x="382" y="509" type="curve" smooth="yes"/>
      <point x="500" y="509"/>
      <point x="641" y="430"/>
    </contour>
    <contour>
      <point x="184" y="654" type="line"/>
      <point x="184" y="0" type="line"/>
      <point x="105" y="0" type="line"/>
      <point x="105" y="643" type="line"/>
      <point x="30" y="672" type="line"/>
      <point x="30" y="718" type="line"/>
      <point x="109" y="766" type="line"/>
      <point x="184" y="717" type="line"/>
    </contour>
    <contour>
      <point x="179" y="88" type="line"/>
      <point x="179" y="40" type="line"/>
    </contour>
  </outline>
</glyph>
<glyph name="c" format="2">
  <advance width="579"/>
  <unicode hex="0063"/>
  <outline>
    <contour>
      <point x="531" y="308" type="line"/>
      <point x="506" y="428"/>
      <point x="396" y="506"/>
      <point x="291" y="506" type="curve" smooth="yes"/>
      <point x="152" y="506"/>
      <point x="45" y="405"/>
      <point x="45" y="256" type="curve" smooth="yes"/>
      <point x="45" y="64"/>
      <point x="152" y="-8"/>
      <point x="290" y="-8" type="curve" smooth="yes"/>
      <point x="389" y="-8"/>
      <point x="493" y="41"/>
      <point x="526" y="167" type="curve"/>
      <point x="457" y="185" type="line"/>
      <point x="428" y="129"/>
      <point x="359" y="101"/>
      <point x="291" y="101" type="curve" smooth="yes"/>
      <point x="201" y="101"/>
      <point x="111" y="150"/>
      <point x="111" y="247" type="curve" smooth="yes"/>
      <point x="111" y="344"/>
      <point x="201" y="393"/>
      <point x="291" y="393" type="curve" smooth="yes"/>
      <point x="365" y="393"/>
      <point x="439" y="360"/>
      <point x="463" y="293" type="curve"/>
    </contour>
    <contour>
      <point x="464" y="293" type="line"/>
      <point x="535" y="309" type="line"/>
    </contour>
    <contour>
      <point x="525" y="166" type="move"/>
      <point x="458" y="184" type="line"/>
    </contour>
  </outline>
</glyph>
<glyph name="d" format="2">
  <advance width="686"/>
  <unicode hex="0064"/>
  <outline>
    <contour>
      <point x="512" y="1" type="line"/>
      <point x="512" y="99" type="line"/>
    </contour>
    <contour>
      <point x="489" y="151" type="line"/>
      <point x="519" y="66" type="line"/>
    </contour>
    <contour>
      <point x="476" y="251" type="curve" smooth="yes"/>
      <point x="476" y="442"/>
      <point x="111" y="442"/>
      <point x="111" y="251" type="curve" smooth="yes"/>
      <point x="111" y="55"/>
      <point x="476" y="55"/>
    </contour>
    <contour>
      <point x="45" y="242" type="curve" smooth="yes"/>
      <point x="45" y="430"/>
      <point x="182" y="509"/>
      <point x="300" y="509" type="curve" smooth="yes"/>
      <point x="327" y="509"/>
      <point x="385" y="496"/>
      <point x="419" y="474" type="curve"/>
      <point x="515" y="357" type="line"/>
      <point x="579" y="321"/>
      <point x="565" y="325"/>
      <point x="565" y="213" type="curve"/>
      <point x="551" y="158" type="line"/>
      <point x="400" y="14" type="line"/>
      <point x="374" y="0"/>
      <point x="343" y="-6"/>
      <point x="300" y="-6" type="curve" smooth="yes"/>
      <point x="170" y="-6"/>
      <point x="45" y="64"/>
    </contour>
    <contour>
      <point x="492" y="88" type="line"/>
      <point x="492" y="40" type="line"/>
    </contour>
    <contour>
      <point x="646" y="0" type="line"/>
      <point x="526" y="0" type="line"/>
      <point x="526" y="88" type="line"/>
      <point x="646" y="88" type="line"/>
    </contour>
    <contour>
      <point x="526" y="118" type="line"/>
      <point x="567" y="118" type="line"/>
      <point x="646" y="58" type="line"/>
      <point x="526" y="58" type="line"/>
    </contour>
    <contour>
      <point x="568" y="7" type="move"/>
      <point x="526" y="9" type="line"/>
    </contour>
    <contour>
      <point x="566" y="654" type="line"/>
      <point x="566" y="636" type="line"/>
      <point x="487" y="636" type="line"/>
      <point x="487" y="643" type="line"/>
      <point x="412" y="672" type="line"/>
      <point x="412" y="718" type="line"/>
      <point x="491" y="766" type="line"/>
      <point x="566" y="717" type="line"/>
    </contour>
    <contour>
      <point x="566" y="638" type="line"/>
      <point x="566" y="0" type="line"/>
      <point x="487" y="0" type="line"/>
      <point x="487" y="638" type="line"/>
    </contour>
    <contour>
      <point x="487" y="636" type="line"/>
      <point x="566" y="636" type="line"/>
    </contour>
  </outline>
</glyph>
<glyph name="e" format="2">
  <advance width="576"/>
  <unicode hex="0065"/>
  <outline>
    <contour>
      <point x="90" y="219" type="line"/>
      <point x="531" y="219" type="line"/>
      <point x="531" y="282" type="line"/>
      <point x="57" y="282" type="line"/>
    </contour>
    <contour>
      <point x="531" y="261" type="line"/>
      <point x="529" y="499"/>
      <point x="315" y="506"/>
      <point x="295" y="506" type="curve" smooth="yes"/>
      <point x="176" y="506"/>
      <point x="45" y="413"/>
      <point x="45" y="260" type="curve" smooth="yes"/>
      <point x="45" y="64"/>
      <point x="172" y="-10"/>
      <point x="292" y="-10" type="curve" smooth="yes"/>
      <point x="400" y="-10"/>
      <point x="486" y="21"/>
      <point x="522" y="129" type="curve"/>
      <point x="443" y="147" type="line"/>
      <point x="413" y="109"/>
      <point x="360" y="90"/>
      <point x="306" y="90" type="curve" smooth="yes"/>
      <point x="212" y="90"/>
      <point x="111" y="147"/>
      <point x="111" y="252" type="curve" smooth="yes"/>
      <point x="111" y="349"/>
      <point x="204" y="396"/>
      <point x="294" y="396" type="curve" smooth="yes"/>
      <point x="378" y="396"/>
      <point x="459" y="355"/>
      <point x="459" y="275" type="curve"/>
    </contour>
    <contour>
      <point x="520" y="129" type="move"/>
      <point x="443" y="147" type="line"/>
    </contour>
  </outline>
</glyph>
<glyph name="f" format="2">
  <advance width="472"/>
  <unicode hex="0066"/>
  <guideline x="191" y="484" angle="90" identifier="trvGboTi2u"/>
  <guideline x="61" y="285" angle="90" identifier="IKZQ1dmvSH"/>
  <outline>
    <contour>
      <point x="328" y="0" type="line"/>
      <point x="328" y="92" type="line"/>
      <point x="61" y="92" type="line"/>
      <point x="61" y="0" type="line"/>
    </contour>
    <contour>
      <point x="225" y="124" type="line"/>
      <point x="146" y="124" type="line"/>
      <point x="63" y="61" type="line"/>
      <point x="307" y="61" type="line"/>
    </contour>
    <contour>
      <point x="142" y="566" type="line"/>
      <point x="142" y="0" type="line"/>
      <point x="226" y="1" type="line"/>
      <point x="226" y="584" type="line"/>
    </contour>
    <contour>
      <point x="467" y="684" type="line"/>
      <point x="388" y="759" type="line"/>
      <point x="368" y="762"/>
      <point x="349" y="763"/>
      <point x="336" y="763" type="curve"/>
      <point x="205" y="758"/>
      <point x="144" y="693"/>
      <point x="144" y="643" type="curve"/>
      <point x="143" y="621"/>
      <point x="141" y="568"/>
      <point x="142" y="546" type="curve"/>
      <point x="142" y="546"/>
      <point x="226" y="584"/>
      <point x="226" y="584" type="curve"/>
      <point x="226" y="642"/>
      <point x="270" y="661"/>
      <point x="340" y="661" type="curve" smooth="yes"/>
      <point x="345" y="661"/>
      <point x="350" y="661"/>
      <point x="356" y="661" type="curve"/>
      <point x="391" y="659"/>
      <point x="424" y="650"/>
      <point x="447" y="634" type="curve"/>
    </contour>
    <contour>
      <point x="390" y="380" type="line"/>
      <point x="390" y="478" type="line"/>
      <point x="60" y="478" type="line"/>
      <point x="60" y="380" type="line"/>
    </contour>
    <contour>
      <point x="388" y="759" type="move"/>
      <point x="466" y="685" type="line"/>
    </contour>
    <contour>
      <point x="151" y="520" type="line"/>
      <point x="99" y="477" type="line"/>
      <point x="151" y="477" type="line"/>
    </contour>
  </outline>
</glyph>
<glyph name="g" format="2">
  <advance width="688"/>
  <unicode hex="0067"/>
  <outline>
    <contour>
      <point x="570" y="392" type="line"/>
      <point x="570" y="509" type="line"/>
      <point x="648" y="464" type="line"/>
      <point x="648" y="420" type="line"/>
    </contour>
    <contour>
      <point x="144" y="-37" type="line"/>
      <point x="66" y="-37" type="line"/>
    </contour>
    <contour>
      <point x="481" y="251" type="curve" smooth="yes"/>
      <point x="481" y="55"/>
      <point x="123" y="55"/>
      <point x="123" y="251" type="curve" smooth="yes"/>
      <point x="123" y="442"/>
      <point x="481" y="442"/>
    </contour>
    <contour>
      <point x="52" y="241" type="curve" smooth="yes"/>
      <point x="52" y="82"/>
      <point x="153" y="-6"/>
      <point x="295" y="-6" type="curve"/>
      <point x="292" y="-6"/>
      <point x="380" y="-9"/>
      <point x="397" y="8" type="curve" smooth="yes"/>
      <point x="517" y="140" type="line"/>
      <point x="519" y="348" type="line"/>
      <point x="423" y="476" type="line"/>
      <point x="374" y="508"/>
      <point x="353" y="506"/>
      <point x="296" y="506" type="curve" smooth="yes"/>
      <point x="170" y="506"/>
      <point x="52" y="429"/>
    </contour>
    <contour>
      <point x="144" y="-37" type="curve"/>
      <point x="65" y="-37" type="line"/>
      <point x="65" y="-242"/>
      <point x="255" y="-260"/>
      <point x="333" y="-260" type="curve" smooth="yes"/>
      <point x="448" y="-260"/>
      <point x="570" y="-222"/>
      <point x="570" y="-37" type="curve" smooth="yes"/>
      <point x="570" y="509" type="line"/>
      <point x="493" y="456" type="line"/>
      <point x="493" y="-37" type="line" smooth="yes"/>
      <point x="493" y="-131"/>
      <point x="367" y="-156"/>
      <point x="327" y="-156" type="curve" smooth="yes"/>
      <point x="288" y="-156"/>
      <point x="144" y="-129"/>
    </contour>
  </outline>
</glyph>
<glyph name="h" format="2">
  <advance width="666"/>
  <unicode hex="0068"/>
  <outline>
    <contour>
      <point x="631" y="0" type="line"/>
      <point x="398" y="0" type="line"/>
      <point x="398" y="87" type="line"/>
      <point x="631" y="87" type="line"/>
    </contour>
    <contour>
      <point x="475" y="115" type="line"/>
      <point x="553" y="115" type="line"/>
      <point x="631" y="57" type="line"/>
      <point x="398" y="57" type="line"/>
    </contour>
    <contour>
      <point x="284" y="-1" type="line"/>
      <point x="45" y="-1" type="line"/>
      <point x="45" y="87" type="line"/>
      <point x="284" y="87" type="line"/>
    </contour>
    <contour>
      <point x="130" y="117" type="line"/>
      <point x="205" y="117" type="line"/>
      <point x="284" y="57" type="line"/>
      <point x="45" y="57" type="line"/>
    </contour>
    <contour>
      <point x="129" y="9" type="line"/>
      <point x="129" y="662" type="line"/>
      <point x="53" y="689" type="line"/>
      <point x="53" y="731" type="line"/>
      <point x="136" y="774" type="line"/>
      <point x="206" y="745" type="line"/>
      <point x="206" y="6" type="line"/>
    </contour>
    <contour>
      <point x="199" y="409" type="line"/>
      <point x="278" y="494" type="line"/>
      <point x="303" y="502"/>
      <point x="342" y="507"/>
      <point x="372" y="507" type="curve" smooth="yes"/>
      <point x="487" y="507"/>
      <point x="553" y="440"/>
      <point x="553" y="323" type="curve" smooth="yes"/>
      <point x="553" y="0" type="line"/>
      <point x="475" y="0" type="line"/>
      <point x="475" y="318" type="line" smooth="yes"/>
      <point x="475" y="369"/>
      <point x="421" y="405"/>
      <point x="342" y="405" type="curve" smooth="yes"/>
      <point x="264" y="405"/>
      <point x="207" y="369"/>
      <point x="207" y="318" type="curve"/>
    </contour>
  </outline>
</glyph>
<glyph name="i" format="2">
  <advance width="336"/>
  <unicode hex="0069"/>
  <outline>
    <contour>
      <point x="286" y="-1" type="line"/>
      <point x="57" y="-1" type="line"/>
      <point x="55" y="104" type="line"/>
      <point x="286" y="104" type="line"/>
    </contour>
    <contour>
      <point x="142" y="134" type="line"/>
      <point x="207" y="134" type="line"/>
      <point x="286" y="74" type="line"/>
      <point x="57" y="74" type="line"/>
    </contour>
    <contour>
      <point x="141" y="-1" type="line"/>
      <point x="141" y="379" type="line"/>
      <point x="65" y="422" type="line"/>
      <point x="65" y="470" type="line"/>
      <point x="148" y="510" type="line"/>
      <point x="211" y="474" type="line"/>
      <point x="209" y="-1" type="line"/>
    </contour>
    <contour>
      <point x="151.0" y="753" type="line"/>
      <point x="238" y="708" type="line"/>
      <point x="238" y="651" type="line"/>
      <point x="151.0" y="602" type="line"/>
      <point x="64" y="651" type="line"/>
      <point x="64" y="708" type="line"/>
    </contour>
  </outline>
</glyph>
<glyph name="j" format="2">
  <advance width="354"/>
  <unicode hex="006A"/>
  <outline>
    <contour>
      <point x="155" y="-31" type="line"/>
      <point x="155" y="379" type="line"/>
      <point x="79" y="422" type="line"/>
      <point x="79" y="470" type="line"/>
      <point x="162" y="510" type="line"/>
      <point x="240" y="474" type="line"/>
      <point x="238" y="-31" type="line"/>
    </contour>
    <contour>
      <point x="165.0" y="753" type="line"/>
      <point x="252" y="708" type="line"/>
      <point x="252" y="651" type="line"/>
      <point x="165.0" y="602" type="line"/>
      <point x="78" y="651" type="line"/>
      <point x="78" y="708" type="line"/>
    </contour>
    <contour>
      <point x="155" y="-31" type="line"/>
      <point x="155" y="-125"/>
      <point x="79" y="-150"/>
      <point x="9" y="-150" type="curve" smooth="yes"/>
      <point x="-21" y="-150"/>
      <point x="-45" y="-142"/>
      <point x="-63" y="-130" type="curve"/>
      <point x="-147" y="-182" type="line"/>
      <point x="-102" y="-245"/>
      <point x="-26" y="-259"/>
      <point x="7" y="-259" type="curve"/>
      <point x="92" y="-259"/>
      <point x="238" y="-216"/>
      <point x="238" y="-31" type="curve"/>
    </contour>
    <contour>
      <point x="-55" y="-125" type="move"/>
      <point x="-160" y="-192" type="line"/>
    </contour>
  </outline>
</glyph>
<glyph name="k" format="2">
  <advance width="560"/>
  <unicode hex="006B"/>
  <outline>
    <contour>
      <point x="264" y="-1" type="line"/>
      <point x="45" y="-1" type="line"/>
      <point x="45" y="87" type="line"/>
      <point x="264" y="87" type="line"/>
    </contour>
    <contour>
      <point x="130" y="117" type="line"/>
      <point x="205" y="117" type="line"/>
      <point x="264" y="57" type="line"/>
      <point x="45" y="57" type="line"/>
    </contour>
    <contour>
      <point x="129" y="9" type="line"/>
      <point x="129" y="662" type="line"/>
      <point x="53" y="689" type="line"/>
      <point x="53" y="731" type="line"/>
      <point x="136" y="774" type="line"/>
      <point x="206" y="745" type="line"/>
      <point x="206" y="6" type="line"/>
    </contour>
    <contour>
      <point x="441" y="-1" type="line"/>
      <point x="132" y="325" type="line"/>
      <point x="200" y="368" type="line"/>
      <point x="509" y="57" type="line"/>
    </contour>
    <contour>
      <point x="520" y="-1" type="line"/>
      <point x="441" y="-1" type="line"/>
      <point x="441" y="87" type="line"/>
      <point x="520" y="87" type="line"/>
    </contour>
    <contour>
      <point x="422" y="124" type="line"/>
      <point x="510" y="57" type="line"/>
    </contour>
    <contour>
      <point x="460" y="521" type="line"/>
      <point x="291" y="521" type="line"/>
      <point x="291" y="447" type="line"/>
      <point x="365" y="447" type="line"/>
      <point x="460" y="447" type="line"/>
    </contour>
    <contour>
      <point x="410" y="447" type="move"/>
      <point x="197" y="238" type="line"/>
      <point x="197" y="343" type="line"/>
      <point x="312" y="447" type="line"/>
    </contour>
  </outline>
</glyph>
<glyph name="l" format="2">
  <advance width="330"/>
  <unicode hex="006C"/>
  <outline>
    <contour>
      <point x="295" y="-1" type="line"/>
      <point x="35" y="-1" type="line"/>
      <point x="35" y="86" type="line"/>
      <point x="295" y="86" type="line"/>
    </contour>
    <contour>
      <point x="130" y="117" type="line"/>
      <point x="205" y="117" type="line"/>
      <point x="284" y="57" type="line"/>
      <point x="45" y="57" type="line"/>
    </contour>
    <contour>
      <point x="129" y="9" type="line"/>
      <point x="129" y="662" type="line"/>
      <point x="53" y="689" type="line"/>
      <point x="53" y="731" type="line"/>
      <point x="136" y="774" type="line"/>
      <point x="206" y="745" type="line"/>
      <point x="206" y="9" type="line"/>
    </contour>
    <contour>
      <point x="207" y="318" type="move"/>
    </contour>
  </outline>
</glyph>
<glyph name="m" format="2">
  <advance width="936"/>
  <unicode hex="006D"/>
  <outline>
    <contour>
      <point x="602" y="0" type="line"/>
      <point x="369" y="0" type="line"/>
      <point x="369" y="87" type="line"/>
      <point x="602" y="87" type="line"/>
    </contour>
    <contour>
      <point x="446" y="115" type="line"/>
      <point x="524" y="115" type="line"/>
      <point x="602" y="57" type="line"/>
      <point x="369" y="57" type="line"/>
    </contour>
    <contour>
      <point x="294" y="-1" type="line"/>
      <point x="55" y="-1" type="line"/>
      <point x="55" y="87" type="line"/>
      <point x="294" y="87" type="line"/>
    </contour>
    <contour>
      <point x="140" y="117" type="line"/>
      <point x="215" y="117" type="line"/>
      <point x="294" y="57" type="line"/>
      <point x="55" y="57" type="line"/>
    </contour>
    <contour>
      <point x="139" y="-1" type="line"/>
      <point x="139" y="402" type="line"/>
      <point x="63" y="429" type="line"/>
      <point x="63" y="471" type="line"/>
      <point x="146" y="514" type="line"/>
      <point x="217" y="485" type="line"/>
      <point x="217" y="-1" type="line"/>
    </contour>
    <contour>
      <point x="211" y="386" type="line"/>
      <point x="298" y="481" type="line"/>
      <point x="298" y="481"/>
      <point x="524" y="587"/>
      <point x="524" y="323" type="curve" smooth="yes"/>
      <point x="524" y="0" type="line"/>
      <point x="447" y="0" type="line"/>
      <point x="447" y="314" type="line" smooth="yes"/>
      <point x="447" y="373"/>
      <point x="421" y="391"/>
      <point x="354" y="391" type="curve" smooth="yes"/>
      <point x="284" y="391"/>
      <point x="219" y="372"/>
      <point x="219" y="314" type="curve"/>
    </contour>
    <contour>
      <point x="896" y="0" type="line"/>
      <point x="663" y="0" type="line"/>
      <point x="663" y="87" type="line"/>
      <point x="896" y="87" type="line"/>
    </contour>
    <contour>
      <point x="740" y="115" type="line"/>
      <point x="818" y="115" type="line"/>
      <point x="896" y="57" type="line"/>
      <point x="663" y="57" type="line"/>
    </contour>
    <contour>
      <point x="505" y="386" type="line"/>
      <point x="592" y="481" type="line"/>
      <point x="592" y="481"/>
      <point x="818" y="587"/>
      <point x="818" y="323" type="curve" smooth="yes"/>
      <point x="818" y="0" type="line"/>
      <point x="741" y="0" type="line"/>
      <point x="741" y="314" type="line" smooth="yes"/>
      <point x="741" y="373"/>
      <point x="715" y="391"/>
      <point x="648" y="391" type="curve" smooth="yes"/>
      <point x="578" y="391"/>
      <point x="513" y="372"/>
      <point x="513" y="314" type="curve"/>
    </contour>
  </outline>
</glyph>
<glyph name="n" format="2">
  <advance width="681"/>
  <unicode hex="006E"/>
  <outline>
    <contour>
      <point x="641" y="0" type="line"/>
      <point x="408" y="0" type="line"/>
      <point x="408" y="87" type="line"/>
      <point x="641" y="87" type="line"/>
    </contour>
    <contour>
      <point x="485" y="115" type="line"/>
      <point x="563" y="115" type="line"/>
      <point x="641" y="57" type="line"/>
      <point x="408" y="57" type="line"/>
    </contour>
    <contour>
      <point x="294" y="-1" type="line"/>
      <point x="55" y="-1" type="line"/>
      <point x="55" y="87" type="line"/>
      <point x="294" y="87" type="line"/>
    </contour>
    <contour>
      <point x="140" y="117" type="line"/>
      <point x="215" y="117" type="line"/>
      <point x="294" y="57" type="line"/>
      <point x="55" y="57" type="line"/>
    </contour>
    <contour>
      <point x="139" y="-1" type="line"/>
      <point x="139" y="402" type="line"/>
      <point x="63" y="429" type="line"/>
      <point x="63" y="471" type="line"/>
      <point x="146" y="514" type="line"/>
      <point x="217" y="485" type="line"/>
      <point x="217" y="-1" type="line"/>
    </contour>
    <contour>
      <point x="210" y="386" type="line"/>
      <point x="297" y="481" type="line"/>
      <point x="297" y="481"/>
      <point x="551" y="587"/>
      <point x="563" y="323" type="curve" smooth="yes"/>
      <point x="563" y="0" type="line"/>
      <point x="485" y="0" type="line"/>
      <point x="487" y="314" type="line" smooth="yes"/>
      <point x="487" y="373"/>
      <point x="420" y="391"/>
      <point x="353" y="391" type="curve" smooth="yes"/>
      <point x="283" y="391"/>
      <point x="218" y="372"/>
      <point x="218" y="314" type="curve"/>
    </contour>
  </outline>
</glyph>
<glyph name="o" format="2">
  <advance width="572"/>
  <unicode hex="006F"/>
  <outline>
    <contour>
      <point x="532" y="256" type="curve" smooth="yes"/>
      <point x="532" y="405"/>
      <point x="405" y="506"/>
      <point x="286" y="506" type="curve" smooth="yes"/>
      <point x="147" y="506"/>
      <point x="40" y="405"/>
      <point x="40" y="256" type="curve" smooth="yes"/>
      <point x="40" y="64"/>
      <point x="147" y="-8"/>
      <point x="285" y="-8" type="curve" smooth="yes"/>
      <point x="405" y="-8"/>
      <point x="532" y="64"/>
    </contour>
    <contour>
      <point x="466" y="247" type="curve" smooth="yes"/>
      <point x="466" y="150"/>
      <point x="376" y="101"/>
      <point x="286" y="101" type="curve" smooth="yes"/>
      <point x="196" y="101"/>
      <point x="106" y="150"/>
      <point x="106" y="247" type="curve" smooth="yes"/>
      <point x="106" y="345"/>
      <point x="196" y="393"/>
      <point x="286" y="393" type="curve" smooth="yes"/>
      <point x="376" y="393"/>
      <point x="466" y="345"/>
    </contour>
  </outline>
</glyph>
<glyph name="p" format="2">
  <advance width="727"/>
  <unicode hex="0070"/>
  <outline>
    <contour>
      <point x="233" y="247" type="curve" smooth="yes"/>
      <point x="233" y="56"/>
      <point x="587" y="56"/>
      <point x="587" y="247" type="curve" smooth="yes"/>
      <point x="587" y="443"/>
      <point x="233" y="443"/>
    </contour>
    <contour>
      <point x="661" y="258" type="curve" smooth="yes"/>
      <point x="661" y="70"/>
      <point x="532" y="-6"/>
      <point x="430" y="-6" type="curve" smooth="yes"/>
      <point x="373" y="-6"/>
      <point x="336" y="1"/>
      <point x="324" y="12" type="curve"/>
      <point x="206" y="132" type="line"/>
      <point x="140" y="168"/>
      <point x="136" y="160"/>
      <point x="136" y="272" type="curve" smooth="yes"/>
      <point x="136" y="358"/>
      <point x="141" y="310"/>
      <point x="211" y="354" type="curve"/>
      <point x="322" y="482" type="line"/>
      <point x="333" y="493"/>
      <point x="375" y="506"/>
      <point x="431" y="506" type="curve" smooth="yes"/>
      <point x="532" y="506"/>
      <point x="661" y="404"/>
    </contour>
    <contour>
      <point x="295" y="-258" type="line"/>
      <point x="43" y="-258" type="line"/>
      <point x="43" y="-166" type="line"/>
      <point x="295" y="-166" type="line"/>
    </contour>
    <contour>
      <point x="206" y="-134" type="line"/>
      <point x="295" y="-197" type="line"/>
      <point x="44" y="-197" type="line"/>
      <point x="127" y="-134" type="line"/>
    </contour>
    <contour>
      <point x="132" y="392" type="line"/>
      <point x="53" y="420" type="line"/>
      <point x="53" y="464" type="line"/>
      <point x="130" y="509" type="line"/>
    </contour>
    <contour>
      <point x="130" y="509" type="line"/>
      <point x="214" y="456" type="line"/>
      <point x="214" y="-258" type="line"/>
      <point x="131" y="-258" type="line"/>
      <point x="131" y="398" type="line"/>
    </contour>
  </outline>
</glyph>
<glyph name="q" format="2">
  <advance width="720"/>
  <unicode hex="0071"/>
  <guideline x="642" y="-10" angle="90" identifier="K0mSA3RSaf"/>
  <outline>
    <contour>
      <point x="483" y="248" type="curve" smooth="yes"/>
      <point x="483" y="444"/>
      <point x="122" y="444"/>
      <point x="122" y="248" type="curve" smooth="yes"/>
      <point x="122" y="57"/>
      <point x="483" y="57"/>
    </contour>
    <contour>
      <point x="49" y="258" type="curve" smooth="yes"/>
      <point x="49" y="404"/>
      <point x="178" y="506"/>
      <point x="296" y="506" type="curve" smooth="yes"/>
      <point x="352" y="506"/>
      <point x="394" y="493"/>
      <point x="405" y="482" type="curve"/>
      <point x="496" y="353" type="line"/>
      <point x="566" y="309"/>
      <point x="561" y="358"/>
      <point x="561" y="272" type="curve" smooth="yes"/>
      <point x="561" y="160"/>
      <point x="566" y="168"/>
      <point x="500" y="132" type="curve"/>
      <point x="403" y="12" type="line"/>
      <point x="391" y="1"/>
      <point x="354" y="-6"/>
      <point x="297" y="-6" type="curve" smooth="yes"/>
      <point x="178" y="-6"/>
      <point x="49" y="70"/>
    </contour>
    <contour>
      <point x="502" y="-258" type="line"/>
      <point x="534" y="-166" type="line"/>
      <point x="534" y="-258" type="line"/>
    </contour>
    <contour>
      <point x="565" y="392" type="line"/>
      <point x="567" y="509" type="line"/>
      <point x="644" y="464" type="line"/>
      <point x="644" y="420" type="line"/>
    </contour>
    <contour>
      <point x="566" y="398" type="line"/>
      <point x="566" y="-258" type="line"/>
      <point x="483" y="-258" type="line"/>
      <point x="483" y="456" type="line"/>
      <point x="567" y="509" type="line"/>
    </contour>
    <contour>
      <point x="566" y="-256" type="move"/>
      <point x="541" y="-135" type="line"/>
    </contour>
    <contour>
      <point x="561" y="-258" type="line"/>
      <point x="559" y="-128" type="line"/>
      <point x="559" y="-128"/>
      <point x="538" y="-97"/>
      <point x="559" y="-70" type="curve" smooth="yes"/>
      <point x="582" y="-40"/>
      <point x="615" y="-10"/>
      <point x="660" y="-6" type="curve"/>
      <point x="700" y="-98" type="line"/>
      <point x="676" y="-103"/>
      <point x="649" y="-117"/>
      <point x="629" y="-138" type="curve"/>
      <point x="624" y="-142"/>
      <point x="621" y="-145"/>
      <point x="617" y="-148" type="curve" smooth="yes"/>
      <point x="589" y="-177"/>
      <point x="566" y="-211"/>
      <point x="566" y="-239" type="curve"/>
    </contour>
  </outline>
</glyph>
<glyph name="r" format="2">
  <advance width="534"/>
  <unicode hex="0072"/>
  <outline>
    <contour>
      <point x="294" y="-1" type="line"/>
      <point x="55" y="-1" type="line"/>
      <point x="55" y="87" type="line"/>
      <point x="294" y="87" type="line"/>
    </contour>
    <contour>
      <point x="140" y="117" type="line"/>
      <point x="215" y="117" type="line"/>
      <point x="294" y="57" type="line"/>
      <point x="55" y="57" type="line"/>
    </contour>
    <contour>
      <point x="139" y="-1" type="line"/>
      <point x="139" y="402" type="line"/>
      <point x="63" y="429" type="line"/>
      <point x="63" y="471" type="line"/>
      <point x="146" y="514" type="line"/>
      <point x="217" y="485" type="line"/>
      <point x="217" y="-1" type="line"/>
    </contour>
    <contour>
      <point x="210" y="386" type="line"/>
      <point x="297" y="481" type="line"/>
      <point x="297" y="481"/>
      <point x="328" y="498"/>
      <point x="369" y="503" type="curve" smooth="yes"/>
      <point x="412" y="509"/>
      <point x="465" y="507"/>
      <point x="504" y="474" type="curve"/>
      <point x="460" y="364" type="line"/>
      <point x="437" y="380"/>
      <point x="404" y="389"/>
      <point x="369" y="391" type="curve"/>
      <point x="363" y="391"/>
      <point x="358" y="391"/>
      <point x="353" y="391" type="curve" smooth="yes"/>
      <point x="283" y="391"/>
      <point x="218" y="372"/>
      <point x="218" y="314" type="curve"/>
    </contour>
  </outline>
</glyph>
<glyph name="s" format="2">
  <advance width="528"/>
  <unicode hex="0073"/>
  <outline>
    <contour>
      <point x="55" y="178" type="line"/>
      <point x="55" y="40"/>
      <point x="123" y="-14"/>
      <point x="272" y="-14" type="curve" smooth="yes"/>
      <point x="411" y="-14"/>
      <point x="473" y="44"/>
      <point x="473" y="144" type="curve" smooth="yes"/>
      <point x="473" y="310"/>
      <point x="145" y="258"/>
      <point x="145" y="352" type="curve"/>
      <point x="148" y="397"/>
      <point x="204" y="406"/>
      <point x="265" y="406" type="curve" smooth="yes"/>
      <point x="335" y="406"/>
      <point x="408" y="371"/>
      <point x="409" y="299" type="curve"/>
      <point x="463" y="315" type="line"/>
      <point x="473" y="459"/>
      <point x="413" y="499"/>
      <point x="273" y="509" type="curve"/>
      <point x="149" y="509"/>
      <point x="83" y="476"/>
      <point x="76" y="365" type="curve" smooth="yes"/>
      <point x="70" y="277"/>
      <point x="139" y="234"/>
      <point x="240" y="213" type="curve" smooth="yes"/>
      <point x="326" y="194"/>
      <point x="401" y="185"/>
      <point x="401" y="134" type="curve" smooth="yes"/>
      <point x="401" y="86"/>
      <point x="330" y="77"/>
      <point x="259" y="79" type="curve" smooth="yes"/>
      <point x="185" y="81"/>
      <point x="111" y="116"/>
      <point x="111" y="196" type="curve"/>
    </contour>
  </outline>
</glyph>
<glyph name="t" format="2">
  <advance width="503"/>
  <unicode hex="0074"/>
  <guideline x="564" y="478" angle="0" identifier="XPEeTgmQyX"/>
  <guideline x="534" y="381" angle="0" identifier="6Cp1bsRV09"/>
  <outline>
    <contour>
      <point x="191" y="231" type="line"/>
      <point x="191" y="104"/>
      <point x="258" y="100"/>
      <point x="295" y="100" type="curve" smooth="yes"/>
      <point x="297" y="100"/>
      <point x="299" y="100"/>
      <point x="301" y="100" type="curve" smooth="yes"/>
      <point x="342" y="100"/>
      <point x="397" y="125"/>
      <point x="397" y="221" type="curve"/>
      <point x="462" y="221" type="line"/>
      <point x="462" y="72"/>
      <point x="371" y="-8"/>
      <point x="304" y="-8" type="curve" smooth="yes"/>
      <point x="225" y="-8"/>
      <point x="110" y="11"/>
      <point x="110" y="220" type="curve"/>
    </contour>
    <contour>
      <point x="111" y="220" type="line"/>
      <point x="111" y="664" type="line"/>
      <point x="191" y="664" type="line"/>
      <point x="191" y="220" type="line"/>
    </contour>
    <contour>
      <point x="439" y="381" type="line"/>
      <point x="21" y="381" type="line"/>
      <point x="21" y="478" type="line"/>
      <point x="439" y="478" type="line"/>
    </contour>
  </outline>
</glyph>
<glyph name="u" format="2">
  <advance width="609"/>
  <unicode hex="0075"/>
  <outline>
    <contour>
      <point x="173" y="500" type="line"/>
      <point x="15" y="500" type="line"/>
      <point x="15" y="413" type="line"/>
      <point x="56" y="413" type="line"/>
      <point x="95" y="385" type="line"/>
      <point x="95" y="173" type="line" smooth="yes"/>
      <point x="95" y="3"/>
      <point x="219" y="-15"/>
      <point x="305" y="-15" type="curve" smooth="yes"/>
      <point x="390" y="-15"/>
      <point x="515" y="3"/>
      <point x="515" y="173" type="curve" smooth="yes"/>
      <point x="515" y="500" type="line"/>
      <point x="357" y="500" type="line"/>
      <point x="357" y="413" type="line"/>
      <point x="398" y="413" type="line"/>
      <point x="436" y="385" type="line"/>
      <point x="436" y="202" type="line" smooth="yes"/>
      <point x="436" y="143"/>
      <point x="371" y="103"/>
      <point x="305" y="103" type="curve" smooth="yes"/>
      <point x="238" y="103"/>
      <point x="173" y="143"/>
      <point x="173" y="202" type="curve" smooth="yes"/>
      <point x="173" y="385" type="line"/>
    </contour>
    <contour>
      <point x="514" y="385" type="move"/>
      <point x="553" y="413" type="line"/>
      <point x="584" y="413" type="line"/>
      <point x="584" y="500" type="line"/>
      <point x="436" y="500" type="line"/>
    </contour>
    <contour>
      <point x="174" y="383" type="move"/>
      <point x="213" y="411" type="line"/>
      <point x="244" y="411" type="line"/>
      <point x="244" y="500" type="line"/>
      <point x="96" y="500" type="line"/>
    </contour>
  </outline>
</glyph>
<glyph name="w" format="2">
  <advance width="1009"/>
  <unicode hex="0077"/>
  <outline>
    <contour>
      <point x="274" y="497" type="line"/>
      <point x="274" y="409" type="line"/>
      <point x="35" y="409" type="line"/>
      <point x="35" y="497" type="line"/>
    </contour>
    <contour>
      <point x="120" y="379" type="line"/>
      <point x="35" y="439" type="line"/>
      <point x="274" y="439" type="line"/>
      <point x="195" y="379" type="line"/>
    </contour>
    <contour>
      <point x="974" y="497" type="line"/>
      <point x="974" y="409" type="line"/>
      <point x="735" y="409" type="line"/>
      <point x="735" y="497" type="line"/>
    </contour>
    <contour>
      <point x="820" y="379" type="line"/>
      <point x="735" y="439" type="line"/>
      <point x="974" y="439" type="line"/>
      <point x="895" y="379" type="line"/>
    </contour>
    <contour>
      <point x="346" y="122" type="line"/>
      <point x="321" y="122" type="line"/>
      <point x="195" y="379" type="line"/>
      <point x="120" y="379" type="line"/>
      <point x="292" y="-2" type="line"/>
      <point x="372" y="-2" type="line"/>
      <point x="507" y="296" type="line"/>
      <point x="642" y="-2" type="line"/>
      <point x="722" y="-2" type="line"/>
      <point x="896" y="379" type="line"/>
      <point x="820" y="379" type="line"/>
      <point x="696" y="122" type="line"/>
      <point x="671" y="122" type="line"/>
      <point x="545" y="379" type="line"/>
      <point x="585" y="409" type="line"/>
      <point x="624" y="409" type="line"/>
      <point x="624" y="497" type="line"/>
      <point x="385" y="497" type="line"/>
      <point x="385" y="409" type="line"/>
      <point x="428" y="409" type="line"/>
      <point x="470" y="379" type="line"/>
    </contour>
  </outline>
</glyph>
<glyph name="x" format="2">
  <advance width="690"/>
  <unicode hex="0078"/>
  <outline>
    <contour>
      <point x="354" y="307" type="line"/>
      <point x="503" y="484" type="line"/>
      <point x="595" y="484" type="line"/>
      <point x="384" y="237" type="line"/>
      <point x="289" y="237" type="line"/>
      <point x="75" y="493" type="line"/>
      <point x="166" y="493" type="line"/>
      <point x="321" y="307" type="line"/>
    </contour>
    <contour>
      <point x="289" y="500" type="line"/>
      <point x="289" y="412" type="line"/>
      <point x="50" y="412" type="line"/>
      <point x="50" y="500" type="line"/>
    </contour>
    <contour>
      <point x="50" y="442" type="line"/>
      <point x="289" y="442" type="line"/>
    </contour>
    <contour>
      <point x="639" y="500" type="line"/>
      <point x="639" y="412" type="line"/>
      <point x="400" y="412" type="line"/>
      <point x="400" y="500" type="line"/>
    </contour>
    <contour>
      <point x="400" y="442" type="line"/>
      <point x="639" y="442" type="line"/>
    </contour>
    <contour>
      <point x="401" y="-1" type="line"/>
      <point x="401" y="87" type="line"/>
      <point x="640" y="87" type="line"/>
      <point x="640" y="-1" type="line"/>
    </contour>
    <contour>
      <point x="640" y="57" type="line"/>
      <point x="401" y="57" type="line"/>
    </contour>
    <contour>
      <point x="51" y="-1" type="line"/>
      <point x="51" y="87" type="line"/>
      <point x="290" y="87" type="line"/>
      <point x="290" y="-1" type="line"/>
    </contour>
    <contour>
      <point x="290" y="57" type="line"/>
      <point x="51" y="57" type="line"/>
    </contour>
    <contour>
      <point x="320" y="210" type="line"/>
      <point x="171" y="33" type="line"/>
      <point x="79" y="33" type="line"/>
      <point x="290" y="277" type="line"/>
      <point x="385" y="277" type="line"/>
      <point x="599" y="24" type="line"/>
      <point x="508" y="24" type="line"/>
      <point x="348" y="210" type="line"/>
    </contour>
    <contour>
      <point x="151" y="55" type="line"/>
    </contour>
    <contour>
      <point x="544" y="72" type="line"/>
    </contour>
  </outline>
</glyph>
<glyph name="y" format="2">
  <advance width="642"/>
  <unicode hex="0079"/>
  <guideline x="23" y="167" angle="90" identifier="KgiygrbA00"/>
  <outline>
    <contour>
      <point x="314" y="113" type="line"/>
      <point x="309" y="113" type="line"/>
      <point x="180" y="388" type="line"/>
      <point x="105" y="388" type="line"/>
      <point x="280" y="-2" type="line"/>
      <point x="360" y="-2" type="line"/>
      <point x="534" y="382" type="line"/>
      <point x="438" y="382" type="line"/>
    </contour>
    <contour>
      <point x="262" y="500" type="line"/>
      <point x="23" y="500" type="line"/>
      <point x="23" y="412" type="line"/>
      <point x="262" y="412" type="line"/>
    </contour>
    <contour>
      <point x="108" y="382" type="line"/>
      <point x="183" y="382" type="line"/>
      <point x="262" y="442" type="line"/>
      <point x="23" y="442" type="line"/>
    </contour>
    <contour>
      <point x="612" y="500" type="line"/>
      <point x="612" y="412" type="line"/>
      <point x="373" y="412" type="line"/>
      <point x="373" y="500" type="line"/>
    </contour>
    <contour>
      <point x="438" y="382" type="line"/>
      <point x="373" y="442" type="line"/>
      <point x="612" y="442" type="line"/>
      <point x="533" y="382" type="line"/>
    </contour>
    <contour>
      <point x="231" y="-57" type="line"/>
      <point x="195" y="-152"/>
      <point x="98" y="-176"/>
      <point x="58" y="-176" type="curve" smooth="yes"/>
      <point x="50" y="-176"/>
      <point x="47" y="-175"/>
      <point x="32" y="-172" type="curve"/>
      <point x="20" y="-277" type="line"/>
      <point x="41" y="-279"/>
      <point x="49" y="-280"/>
      <point x="64" y="-280" type="curve" smooth="yes"/>
      <point x="109" y="-280"/>
      <point x="152" y="-270"/>
      <point x="190" y="-252" type="curve" smooth="yes"/>
      <point x="224" y="-236"/>
      <point x="270" y="-219"/>
      <point x="360" y="-2" type="curve"/>
      <point x="402" y="92" type="line"/>
      <point x="340" y="81" type="line"/>
      <point x="291" y="71" type="line"/>
    </contour>
  </outline>
</glyph>
<glyph name="z" format="2">
  <advance width="526"/>
  <unicode hex="007A"/>
  <guideline x="466" y="357" angle="90" identifier="OxXQ2YM5yQ"/>
  <guideline x="50" y="402" angle="90" identifier="ZetoKsANix"/>
  <outline>
    <contour>
      <point x="454" y="497" type="line"/>
      <point x="454" y="409" type="line"/>
      <point x="50" y="409" type="line"/>
      <point x="136" y="497" type="line"/>
      <point x="137" y="497" type="line"/>
      <point x="137" y="497" type="line"/>
    </contour>
    <contour>
      <point x="301" y="-1" type="line"/>
      <point x="301" y="87" type="line"/>
      <point x="482" y="87" type="line"/>
      <point x="482" y="-1" type="line"/>
    </contour>
    <contour>
      <point x="51" y="-1" type="line"/>
      <point x="51" y="87" type="line"/>
      <point x="340" y="87" type="line"/>
      <point x="340" y="-1" type="line"/>
    </contour>
    <contour>
      <point x="51" y="87" type="line"/>
      <point x="370" y="409" type="line"/>
      <point x="454" y="409" type="line"/>
      <point x="148" y="87" type="line"/>
    </contour>
    <contour>
      <point x="484" y="157" type="line"/>
      <point x="484" y="5" type="line"/>
      <point x="396" y="5" type="line"/>
      <point x="396" y="157" type="line"/>
    </contour>
    <contour>
      <point x="366" y="6" type="line"/>
      <point x="366" y="88" type="line"/>
      <point x="426" y="147" type="line"/>
      <point x="426" y="6" type="line"/>
    </contour>
    <contour>
      <point x="477" y="89" type="move"/>
      <point x="474" y="12" type="line"/>
    </contour>
    <contour>
      <point x="52" y="415" type="move"/>
    </contour>
    <contour>
      <point x="50" y="345" type="line"/>
      <point x="50" y="497" type="line"/>
      <point x="137" y="497" type="line"/>
      <point x="137" y="345" type="line"/>
    </contour>
    <contour>
      <point x="168" y="496" type="line"/>
      <point x="168" y="414" type="line"/>
      <point x="108" y="346" type="line"/>
      <point x="108" y="496" type="line"/>
    </contour>
    <contour>
      <point x="57" y="413" type="move"/>
      <point x="60" y="490" type="line"/>
    </contour>
    <contour>
      <point x="50" y="402" type="move"/>
      <point x="137" y="497" type="line"/>
    </contour>
  </outline>
</glyph>
<glyph name="emdash" format="2">
  <advance width="924"/>
  <unicode hex="2014"/>
  <outline>
    <contour>
      <point x="123" y="385" type="line"/>
    </contour>
    <contour>
      <point x="309" y="349" type="line"/>
      <point x="123" y="385" type="line"/>
      <point x="55" y="350" type="line"/>
      <point x="55" y="313" type="line"/>
      <point x="122" y="278" type="line"/>
      <point x="309" y="322" type="line"/>
    </contour>
    <contour>
      <point x="123" y="385" type="line"/>
      <point x="310" y="349" type="line"/>
    </contour>
    <contour>
      <point x="122" y="278" type="move"/>
      <point x="804" y="278" type="line"/>
      <point x="869" y="312" type="line"/>
      <point x="869" y="349" type="line"/>
      <point x="804" y="385" type="line"/>
      <point x="123" y="385" type="line"/>
    </contour>
  </outline>
</glyph>
<glyph name="quoteleft" format="2">
  <advance width="234"/>
  <unicode hex="2018"/>
  <outline>
    <contour>
      <point x="118" y="749" type="line"/>
      <point x="96" y="818" type="line"/>
      <point x="44" y="826" type="line"/>
      <point x="-5" y="771" type="line"/>
      <point x="23" y="703" type="line"/>
      <point x="75" y="693" type="line"/>
    </contour>
    <contour>
      <point x="23" y="703" type="line"/>
      <point x="134" y="563" type="line"/>
      <point x="173" y="575" type="line"/>
      <point x="102" y="795" type="line"/>
    </contour>
  </outline>
</glyph>
<glyph name="quoteright" format="2">
  <advance width="234"/>
  <unicode hex="2019"/>
  <outline>
    <contour>
      <point x="70" y="729" type="line"/>
      <point x="113" y="673" type="line"/>
      <point x="165" y="683" type="line"/>
      <point x="193" y="751" type="line"/>
      <point x="144" y="806" type="line"/>
      <point x="92" y="798" type="line"/>
    </contour>
    <contour>
      <point x="165" y="683" type="line"/>
      <point x="70" y="729" type="line"/>
      <point x="15" y="555" type="line"/>
      <point x="54" y="543" type="line"/>
    </contour>
  </outline>
</glyph>
<glyph name="quotedblleft" format="2">
  <advance width="325"/>
  <unicode hex="201C"/>
  <outline>
    <contour>
      <point x="268" y="749" type="line"/>
      <point x="246" y="818" type="line"/>
      <point x="194" y="826" type="line"/>
      <point x="145" y="771" type="line"/>
      <point x="173" y="703" type="line"/>
      <point x="225" y="693" type="line"/>
    </contour>
    <contour>
      <point x="173" y="703" type="line"/>
      <point x="284" y="563" type="line"/>
      <point x="323" y="575" type="line"/>
      <point x="252" y="795" type="line"/>
    </contour>
    <contour>
      <point x="118" y="749" type="line"/>
      <point x="96" y="818" type="line"/>
      <point x="44" y="826" type="line"/>
      <point x="-5" y="771" type="line"/>
      <point x="23" y="703" type="line"/>
      <point x="75" y="693" type="line"/>
    </contour>
    <contour>
      <point x="23" y="703" type="line"/>
      <point x="134" y="563" type="line"/>
      <point x="173" y="575" type="line"/>
      <point x="102" y="795" type="line"/>
    </contour>
  </outline>
</glyph>
<glyph name="quotedblright" format="2">
  <advance width="325"/>
  <unicode hex="201D"/>
  <outline>
    <contour>
      <point x="50" y="749" type="line"/>
      <point x="93" y="693" type="line"/>
      <point x="145" y="703" type="line"/>
      <point x="173" y="771" type="line"/>
      <point x="124" y="826" type="line"/>
      <point x="72" y="818" type="line"/>
    </contour>
    <contour>
      <point x="145" y="703" type="line"/>
      <point x="66" y="795" type="line"/>
      <point x="-5" y="575" type="line"/>
      <point x="34" y="563" type="line"/>
    </contour>
    <contour>
      <point x="200" y="749" type="line"/>
      <point x="243" y="693" type="line"/>
      <point x="295" y="703" type="line"/>
      <point x="323" y="771" type="line"/>
      <point x="274" y="826" type="line"/>
      <point x="222" y="818" type="line"/>
    </contour>
    <contour>
      <point x="295" y="703" type="line"/>
      <point x="216" y="795" type="line"/>
      <point x="145" y="575" type="line"/>
      <point x="184" y="563" type="line"/>
    </contour>
  </outline>
</glyph>
